<svg width="879" height="320" viewBox="0 0 879 320" fill="none" xmlns="http://www.w3.org/2000/svg">
<g clip-path="url(#clip0_1_1118)">
<path d="M0 12C0 5.37259 5.37258 0 12 0H867C873.627 0 879 5.37258 879 12V308C879 314.627 873.627 320 867 320H12C5.37256 320 0 314.627 0 308V12Z" fill="#F3F3FF"/>
<g clip-path="url(#clip1_1_1118)">
<g opacity="0.5">
<mask id="mask0_1_1118" style="mask-type:alpha" maskUnits="userSpaceOnUse" x="464" y="-14" width="438" height="355">
<path d="M639.124 -13.6671L465.294 217.013" stroke="#464155" stroke-width="0.747769"/>
<path d="M464.966 217.448L727.239 339.748" stroke="#464155" stroke-width="0.747769"/>
<path d="M676.593 3.80426L502.763 234.484" stroke="#464155" stroke-width="0.747769"/>
<path d="M489.847 184.431L752.12 306.731" stroke="#464155" stroke-width="0.747769"/>
<path d="M714.059 21.2753L540.23 251.955" stroke="#464155" stroke-width="0.747769"/>
<path d="M514.727 151.414L777.001 273.714" stroke="#464155" stroke-width="0.747769"/>
<path d="M751.529 38.7471L577.699 269.427" stroke="#464155" stroke-width="0.747769"/>
<path d="M539.608 118.397L801.881 240.697" stroke="#464155" stroke-width="0.747769"/>
<path d="M788.995 56.2186L615.165 286.899" stroke="#464155" stroke-width="0.747769"/>
<path d="M564.485 85.3826L826.759 207.683" stroke="#464155" stroke-width="0.747769"/>
<path d="M826.464 73.6901L652.634 304.37" stroke="#464155" stroke-width="0.747769"/>
<path d="M589.366 52.3654L851.639 174.665" stroke="#464155" stroke-width="0.747769"/>
<path d="M863.93 91.1614L690.1 321.841" stroke="#464155" stroke-width="0.747769"/>
<path d="M614.247 19.349L876.52 141.649" stroke="#464155" stroke-width="0.747769"/>
<path d="M901.4 108.633L727.57 339.313" stroke="#464155" stroke-width="0.747769"/>
<path d="M639.124 -13.6671L901.397 108.633" stroke="#464155" stroke-width="0.747769"/>
</mask>
<g mask="url(#mask0_1_1118)">
<g filter="url(#filter0_f_1_1118)">
<circle cx="122.39" cy="122.39" r="122.39" transform="matrix(0.906308 0.422618 -0.601815 0.798636 645.915 13.5713)" fill="#CFCBDC"/>
</g>
</g>
</g>
<g opacity="0.5">
<mask id="mask1_1_1118" style="mask-type:alpha" maskUnits="userSpaceOnUse" x="-31" y="-3" width="438" height="356">
<path d="M144.103 -1.703L-29.7271 228.977" stroke="#464155" stroke-width="0.747769"/>
<path d="M-30.0552 229.411L232.218 351.711" stroke="#464155" stroke-width="0.747769"/>
<path d="M181.572 15.7685L7.74222 246.448" stroke="#464155" stroke-width="0.747769"/>
<path d="M-5.17456 196.395L257.099 318.695" stroke="#464155" stroke-width="0.747769"/>
<path d="M219.038 33.2395L45.2084 263.919" stroke="#464155" stroke-width="0.747769"/>
<path d="M19.7061 163.378L281.979 285.678" stroke="#464155" stroke-width="0.747769"/>
<path d="M256.508 50.7114L82.6777 281.391" stroke="#464155" stroke-width="0.747769"/>
<path d="M44.5867 130.362L306.86 252.662" stroke="#464155" stroke-width="0.747769"/>
<path d="M293.974 68.1827L120.144 298.863" stroke="#464155" stroke-width="0.747769"/>
<path d="M69.4641 97.3469L331.737 219.647" stroke="#464155" stroke-width="0.747769"/>
<path d="M331.443 85.6542L157.613 316.334" stroke="#464155" stroke-width="0.747769"/>
<path d="M94.3447 64.3297L356.618 186.63" stroke="#464155" stroke-width="0.747769"/>
<path d="M368.909 103.126L195.079 333.806" stroke="#464155" stroke-width="0.747769"/>
<path d="M119.225 31.3132L381.499 153.613" stroke="#464155" stroke-width="0.747769"/>
<path d="M406.378 120.597L232.549 351.277" stroke="#464155" stroke-width="0.747769"/>
<path d="M144.103 -1.703L406.376 120.597" stroke="#464155" stroke-width="0.747769"/>
</mask>
<g mask="url(#mask1_1_1118)">
<g filter="url(#filter1_f_1_1118)">
<circle cx="122.39" cy="122.39" r="122.39" transform="matrix(0.906308 0.422618 -0.601815 0.798636 150.893 25.5352)" fill="#CFCBDC"/>
</g>
</g>
</g>
<circle cx="369.242" cy="211.61" r="2.42491" fill="#742750"/>
<circle cx="484.019" cy="190.594" r="2.42491" fill="#742750"/>
<circle cx="337.716" cy="139.67" r="2.42491" fill="#742750"/>
<circle cx="467.045" cy="93.5971" r="2.42491" fill="#742750"/>
<path d="M641.976 129.179L640.427 128.456L646.608 120.254L648.157 120.977L641.976 129.179ZM643.666 129.966L648.194 123.957L649.633 124.629L649.439 124.887C649.358 124.994 649.278 125.078 649.2 125.138C649.121 125.199 649.02 125.253 648.896 125.302L648.993 125.478C649.521 125.259 649.985 125.146 650.386 125.139C650.8 125.129 651.211 125.219 651.617 125.409C652.642 125.886 653.092 126.537 652.966 127.36C652.926 127.66 652.831 127.94 652.68 128.199C652.529 128.458 652.318 128.767 652.048 129.125L649.399 132.64L647.948 131.963L650.596 128.448C650.834 128.133 651 127.861 651.094 127.634C651.197 127.411 651.23 127.213 651.194 127.042C651.145 126.757 650.909 126.516 650.486 126.319C649.998 126.092 649.531 126.048 649.084 126.189C648.798 126.278 648.515 126.441 648.236 126.679C647.958 126.917 647.641 127.273 647.284 127.746L645.105 130.638L643.666 129.966ZM652.913 134.278C652.384 134.032 652.066 133.738 651.96 133.398C651.854 133.058 651.987 132.641 652.359 132.146L655.049 128.578L654.024 128.1L654.818 127.046L655.843 127.524L657.495 125.331L658.935 126.002L657.282 128.195L658.673 128.844L657.879 129.897L656.488 129.249L654.066 132.463C653.893 132.692 653.805 132.883 653.799 133.036C653.8 133.181 653.938 133.318 654.215 133.447L654.934 133.783L654.132 134.847L652.913 134.278ZM658.255 136.929C657.588 136.618 657.094 136.209 656.774 135.701C656.467 135.19 656.346 134.635 656.413 134.036C656.484 133.431 656.742 132.834 657.185 132.246C657.595 131.702 658.107 131.248 658.721 130.886C659.343 130.527 660.017 130.318 660.743 130.259C661.476 130.204 662.201 130.344 662.917 130.678C663.518 130.958 663.989 131.333 664.329 131.801C664.682 132.266 664.84 132.799 664.803 133.402C664.775 134.009 664.51 134.645 664.007 135.312L663.764 135.634L659.251 133.53C658.828 133.332 658.543 133.185 658.397 133.088L658.218 133.237C658.281 133.285 658.308 133.337 658.3 133.391C658.306 133.442 658.295 133.515 658.268 133.609C658.228 133.793 658.205 133.904 658.2 133.94C658.109 134.353 658.141 134.726 658.296 135.06C658.459 135.397 658.736 135.657 659.126 135.839C659.541 136.033 659.965 136.104 660.398 136.055C660.845 136.001 661.241 135.862 661.587 135.636L663.075 136.33C662.386 136.851 661.62 137.181 660.778 137.322C659.942 137.454 659.101 137.324 658.255 136.929ZM659.155 132.366C659.325 132.359 659.464 132.365 659.569 132.385C659.688 132.402 659.813 132.441 659.943 132.501L662.359 133.628C662.497 133.692 662.604 133.761 662.68 133.836C662.769 133.906 662.851 134.003 662.924 134.124L663.152 134.041C663.105 133.971 663.081 133.916 663.078 133.876C663.089 133.833 663.106 133.773 663.131 133.697C663.19 133.589 663.222 133.444 663.227 133.263C663.253 132.936 663.173 132.642 662.985 132.38C662.803 132.111 662.538 131.895 662.188 131.732C661.83 131.565 661.462 131.486 661.082 131.493C660.709 131.493 660.342 131.578 659.982 131.75C659.847 131.812 659.701 131.904 659.544 132.025C659.485 132.074 659.429 132.112 659.378 132.136C659.332 132.153 659.256 132.166 659.15 132.175L659.155 132.366ZM664.333 142.727C663.528 142.352 662.948 141.882 662.592 141.319C662.244 140.76 662.269 140.099 662.668 139.336L664.12 140.013C663.988 140.377 664.002 140.694 664.163 140.962C664.318 141.238 664.627 141.484 665.091 141.7C665.676 141.973 666.196 142.056 666.651 141.948C667.114 141.845 667.502 141.585 667.815 141.169L668.042 140.868C668.134 140.746 668.209 140.661 668.269 140.611C668.342 140.558 668.445 140.509 668.577 140.464L668.487 140.277C667.946 140.499 667.464 140.614 667.042 140.62C666.633 140.623 666.197 140.516 665.733 140.3C665.14 140.023 664.712 139.65 664.451 139.179C664.196 138.702 664.117 138.172 664.216 137.588C664.315 137.005 664.586 136.419 665.029 135.832C665.477 135.237 666.003 134.765 666.606 134.417C667.214 134.062 667.844 133.861 668.493 133.815C669.149 133.763 669.769 133.873 670.354 134.146C670.818 134.362 671.15 134.614 671.351 134.901C671.552 135.189 671.659 135.572 671.671 136.053L671.914 136.035C671.909 135.926 671.921 135.83 671.95 135.747C671.98 135.664 672.035 135.569 672.116 135.461L672.311 135.203L673.75 135.875L669.473 141.55C668.75 142.511 667.956 143.061 667.092 143.2C666.237 143.344 665.317 143.186 664.333 142.727ZM666.84 139.335C667.206 139.505 667.596 139.571 668.01 139.532C668.433 139.496 668.832 139.368 669.208 139.146C669.597 138.921 669.935 138.618 670.221 138.238C670.502 137.866 670.675 137.491 670.739 137.114C670.803 136.737 670.758 136.397 670.603 136.092C670.447 135.787 670.187 135.549 669.821 135.379C669.268 135.121 668.678 135.102 668.05 135.323C667.436 135.54 666.915 135.932 666.489 136.498C666.057 137.071 665.867 137.622 665.919 138.15C665.98 138.682 666.287 139.077 666.84 139.335ZM670.803 142.621L675.331 136.612L676.771 137.283L676.576 137.541C676.495 137.649 676.416 137.732 676.337 137.793C676.259 137.853 676.158 137.907 676.033 137.956L676.131 138.132C676.642 137.906 677.11 137.795 677.536 137.8C677.966 137.797 678.413 137.904 678.877 138.12L679.035 138.194L678.104 139.43L677.738 139.259C677.193 139.005 676.677 138.939 676.19 139.06C675.584 139.194 674.997 139.637 674.43 140.39L672.243 143.292L670.803 142.621ZM677.216 145.771C676.55 145.46 676.129 145.056 675.955 144.558C675.78 144.06 675.901 143.535 676.317 142.984C676.738 142.425 677.318 142.1 678.057 142.008C678.588 141.946 679.249 142.017 680.04 142.221L682.466 142.873C682.761 142.468 682.871 142.103 682.797 141.778C682.712 141.439 682.454 141.168 682.023 140.967C681.674 140.804 681.301 140.751 680.906 140.809C680.516 140.86 680.175 141.021 679.883 141.291L678.444 140.62C679.044 140.028 679.742 139.685 680.538 139.592C681.342 139.502 682.098 139.622 682.805 139.952C683.212 140.141 683.552 140.368 683.826 140.631C684.108 140.898 684.3 141.191 684.401 141.509C684.529 141.937 684.496 142.353 684.302 142.756C684.116 143.163 683.834 143.618 683.456 144.119L681.002 147.376L679.562 146.705L679.716 146.501C679.84 146.336 680.038 146.162 680.308 145.978L680.194 145.823C679.823 146.009 679.439 146.125 679.041 146.172C678.5 146.219 677.891 146.086 677.216 145.771ZM678.311 144.887C678.645 145.043 679.004 145.128 679.388 145.142C679.835 145.147 680.209 145.075 680.509 144.924C680.687 144.833 680.84 144.74 680.967 144.644C681.094 144.548 681.255 144.415 681.45 144.244C681.544 144.162 681.628 144.11 681.701 144.086C681.78 144.054 681.858 144.052 681.937 144.079L682.03 143.89C681.274 143.712 680.756 143.582 680.477 143.5L679.705 143.3C679.169 143.166 678.743 143.132 678.429 143.199C678.159 143.266 677.942 143.408 677.78 143.623C677.602 143.859 677.559 144.091 677.652 144.318C677.758 144.542 677.978 144.732 678.311 144.887ZM684.648 149.077C684.12 148.83 683.802 148.537 683.696 148.197C683.59 147.857 683.723 147.44 684.095 146.945L686.785 143.376L685.76 142.898L686.554 141.845L687.578 142.323L689.231 140.13L690.67 140.801L689.018 142.994L690.409 143.642L689.615 144.696L688.224 144.047L685.802 147.262C685.629 147.491 685.54 147.682 685.535 147.834C685.536 147.98 685.674 148.117 685.951 148.246L686.67 148.582L685.868 149.646L684.648 149.077ZM689.991 151.728C689.324 151.417 688.83 151.008 688.51 150.5C688.202 149.989 688.082 149.434 688.148 148.835C688.22 148.229 688.478 147.633 688.92 147.045C689.331 146.5 689.843 146.047 690.457 145.684C691.079 145.325 691.753 145.117 692.478 145.058C693.212 145.003 693.937 145.142 694.653 145.476C695.254 145.757 695.725 146.131 696.065 146.599C696.418 147.064 696.576 147.598 696.539 148.201C696.511 148.807 696.246 149.444 695.743 150.11L695.5 150.433L690.987 148.328C690.564 148.131 690.279 147.984 690.133 147.886L689.954 148.036C690.017 148.084 690.044 148.136 690.036 148.19C690.041 148.241 690.031 148.313 690.004 148.407C689.964 148.592 689.941 148.702 689.936 148.739C689.844 149.151 689.876 149.525 690.031 149.858C690.195 150.196 690.471 150.456 690.862 150.638C691.277 150.831 691.701 150.903 692.134 150.853C692.58 150.8 692.977 150.66 693.323 150.435L694.811 151.128C694.122 151.65 693.356 151.98 692.514 152.12C691.678 152.253 690.837 152.122 689.991 151.728ZM690.891 147.165C691.061 147.157 691.199 147.164 691.305 147.184C691.424 147.201 691.549 147.239 691.679 147.3L694.094 148.426C694.233 148.491 694.34 148.56 694.416 148.634C694.505 148.705 694.587 148.801 694.66 148.923L694.887 148.84C694.841 148.77 694.817 148.715 694.814 148.675C694.825 148.631 694.842 148.572 694.866 148.496C694.926 148.388 694.958 148.243 694.963 148.061C694.989 147.735 694.909 147.441 694.721 147.179C694.539 146.91 694.273 146.694 693.924 146.531C693.566 146.364 693.197 146.284 692.818 146.291C692.445 146.292 692.078 146.377 691.718 146.548C691.583 146.611 691.437 146.703 691.28 146.823C691.22 146.873 691.165 146.91 691.114 146.935C691.068 146.952 690.992 146.965 690.886 146.974L690.891 147.165ZM697.38 155.174C696.786 154.897 696.359 154.523 696.098 154.053C695.85 153.579 695.779 153.047 695.883 152.456C695.987 151.866 696.269 151.266 696.728 150.657C697.187 150.048 697.721 149.565 698.329 149.21C698.938 148.855 699.563 148.652 700.205 148.603C700.86 148.55 701.484 148.662 702.078 148.939C702.534 149.151 702.862 149.401 703.063 149.689C703.272 149.98 703.383 150.365 703.394 150.845L703.638 150.828C703.627 150.726 703.636 150.634 703.666 150.551C703.701 150.461 703.759 150.362 703.84 150.254L705.687 147.803L707.126 148.475L700.946 156.676L699.506 156.005L699.701 155.747C699.782 155.64 699.861 155.556 699.94 155.496C700.024 155.428 700.122 155.377 700.236 155.343L700.146 155.156C699.605 155.378 699.123 155.493 698.701 155.499C698.284 155.498 697.843 155.39 697.38 155.174ZM698.499 154.214C698.865 154.384 699.255 154.45 699.669 154.411C700.084 154.371 700.488 154.236 700.883 154.003C701.278 153.771 701.621 153.461 701.913 153.074C702.204 152.687 702.385 152.302 702.454 151.918C702.524 151.534 702.481 151.19 702.326 150.885C702.171 150.58 701.911 150.342 701.545 150.172C700.984 149.91 700.393 149.891 699.773 150.116C699.154 150.34 698.623 150.746 698.18 151.334C697.737 151.921 697.539 152.483 697.586 153.018C697.634 153.553 697.938 153.952 698.499 154.214Z" fill="#464155"/>
<g filter="url(#filter2_d_1_1118)">
<rect x="0.083107" y="0.333324" width="59.743" height="59.743" rx="9.83086" transform="matrix(0.906308 0.422618 -0.601815 0.798636 693.832 66.9026)" fill="#EBEBFF" stroke="#742750" stroke-width="0.545872"/>
<rect x="0.0829794" y="0.332812" width="59.7439" height="59.7439" rx="9.42713" transform="matrix(0.906308 0.422618 -0.601815 0.798636 692.922 63.2495)" fill="white" stroke="#742750" stroke-width="0.545034"/>
<g filter="url(#filter3_i_1_1118)">
<path d="M700.481 90.7225C701.879 91.855 704.204 91.8113 705.735 90.6239C708.591 88.4104 712.953 90.4445 711.854 93.4772C711.265 95.1041 712.333 96.7298 714.266 97.1506C717.871 97.9352 717.626 102.172 713.923 103.093C711.936 103.588 710.678 105.257 711.08 106.865C711.83 109.864 707.223 112.066 704.618 109.955C703.22 108.822 700.895 108.866 699.363 110.054C696.508 112.267 692.146 110.233 693.244 107.2C693.833 105.573 692.766 103.948 690.832 103.527" stroke="#742750" stroke-width="2.24331" stroke-linecap="round"/>
<path d="M690.872 94.8923L703.286 100.681" stroke="#742750" stroke-width="2.24331" stroke-linecap="round"/>
<path d="M703.584 96.2006L704.979 101.014C705.012 101.131 704.922 101.258 704.778 101.297L698.432 103.038" stroke="#742750" stroke-width="2.24331" stroke-linecap="round"/>
</g>
</g>
<path d="M567.634 233.274C566.992 232.975 566.452 232.597 566.015 232.142C565.586 231.69 565.326 231.167 565.236 230.572C565.153 229.982 565.311 229.349 565.711 228.673L567.284 229.407C567.001 230.03 566.992 230.568 567.255 231.02C567.527 231.476 567.956 231.841 568.541 232.114C569.103 232.376 569.628 232.48 570.118 232.428C570.608 232.376 571.007 232.145 571.315 231.737C571.542 231.436 571.617 231.146 571.541 230.869C571.472 230.595 571.316 230.343 571.072 230.112C570.833 229.875 570.482 229.576 570.018 229.214C569.44 228.77 568.991 228.382 568.671 228.049C568.35 227.715 568.153 227.328 568.079 226.887C568.013 226.449 568.177 225.969 568.571 225.446C568.944 224.951 569.401 224.593 569.942 224.371C570.488 224.141 571.069 224.049 571.684 224.093C572.312 224.135 572.936 224.299 573.554 224.587C574.481 225.02 575.118 225.603 575.467 226.337C575.823 227.074 575.764 227.889 575.289 228.782L573.74 228.059C573.958 227.551 573.961 227.102 573.749 226.712C573.543 226.316 573.175 225.994 572.646 225.748C572.142 225.513 571.673 225.42 571.24 225.47C570.807 225.52 570.464 225.713 570.21 226.05C570.01 226.315 569.944 226.57 570.012 226.815C570.089 227.063 570.241 227.299 570.469 227.522C570.702 227.737 571.033 228.012 571.462 228.348C572.075 228.818 572.544 229.23 572.87 229.586C573.201 229.934 573.397 230.345 573.458 230.818C573.532 231.289 573.356 231.807 572.929 232.373C572.351 233.14 571.591 233.609 570.649 233.78C569.721 233.947 568.716 233.779 567.634 233.274ZM575.524 236.924C574.857 236.613 574.363 236.204 574.043 235.696C573.736 235.185 573.615 234.63 573.682 234.031C573.753 233.426 574.011 232.829 574.453 232.241C574.864 231.697 575.376 231.243 575.99 230.881C576.612 230.522 577.286 230.313 578.011 230.254C578.745 230.199 579.47 230.339 580.186 230.673C580.787 230.953 581.258 231.328 581.598 231.796C581.951 232.261 582.109 232.795 582.072 233.397C582.044 234.004 581.779 234.64 581.276 235.307L581.033 235.629L576.52 233.525C576.097 233.327 575.812 233.18 575.666 233.083L575.487 233.232C575.55 233.28 575.577 233.332 575.569 233.386C575.575 233.437 575.564 233.51 575.537 233.604C575.497 233.788 575.474 233.899 575.469 233.935C575.378 234.348 575.409 234.721 575.565 235.055C575.728 235.392 576.005 235.652 576.395 235.834C576.81 236.028 577.234 236.099 577.667 236.05C578.114 235.996 578.51 235.857 578.856 235.631L580.344 236.325C579.655 236.846 578.889 237.177 578.047 237.317C577.211 237.449 576.37 237.319 575.524 236.924ZM576.424 232.361C576.594 232.354 576.733 232.36 576.838 232.38C576.957 232.397 577.082 232.436 577.212 232.496L579.628 233.623C579.766 233.687 579.873 233.757 579.949 233.831C580.038 233.901 580.12 233.998 580.193 234.119L580.421 234.036C580.374 233.966 580.35 233.911 580.347 233.871C580.358 233.828 580.375 233.768 580.399 233.692C580.459 233.584 580.491 233.439 580.496 233.258C580.522 232.931 580.442 232.637 580.254 232.375C580.072 232.106 579.806 231.89 579.457 231.727C579.099 231.56 578.73 231.481 578.351 231.488C577.978 231.488 577.611 231.573 577.251 231.745C577.116 231.807 576.97 231.899 576.813 232.02C576.754 232.07 576.698 232.107 576.647 232.131C576.601 232.148 576.525 232.161 576.419 232.17L576.424 232.361ZM582.108 239.994C581.441 239.683 581.02 239.279 580.846 238.781C580.672 238.284 580.792 237.759 581.208 237.207C581.629 236.648 582.209 236.323 582.949 236.232C583.479 236.169 584.14 236.24 584.931 236.445L587.358 237.097C587.652 236.692 587.762 236.327 587.688 236.002C587.604 235.662 587.346 235.391 586.915 235.191C586.565 235.027 586.193 234.975 585.797 235.033C585.408 235.083 585.067 235.244 584.775 235.515L583.335 234.843C583.935 234.251 584.633 233.909 585.429 233.815C586.233 233.725 586.989 233.845 587.697 234.175C588.103 234.365 588.444 234.591 588.718 234.855C589 235.122 589.192 235.414 589.292 235.733C589.421 236.16 589.388 236.576 589.194 236.979C589.008 237.387 588.726 237.841 588.348 238.343L585.893 241.6L584.454 240.929L584.608 240.724C584.732 240.559 584.929 240.385 585.2 240.201L585.086 240.046C584.715 240.232 584.331 240.348 583.933 240.395C583.391 240.443 582.783 240.309 582.108 239.994ZM583.203 239.11C583.536 239.266 583.895 239.351 584.28 239.366C584.727 239.371 585.1 239.298 585.4 239.147C585.579 239.056 585.732 238.963 585.859 238.867C585.986 238.772 586.147 238.638 586.341 238.468C586.436 238.386 586.52 238.333 586.593 238.309C586.671 238.278 586.75 238.275 586.828 238.302L586.921 238.113C586.165 237.935 585.648 237.805 585.369 237.724L584.597 237.523C584.06 237.389 583.635 237.356 583.321 237.422C583.05 237.49 582.834 237.631 582.672 237.846C582.494 238.082 582.451 238.314 582.543 238.541C582.65 238.765 582.869 238.955 583.203 239.11ZM587.405 242.305L591.933 236.296L593.373 236.967L593.178 237.225C593.097 237.333 593.018 237.416 592.939 237.477C592.861 237.537 592.759 237.591 592.635 237.64L592.733 237.816C593.26 237.597 593.725 237.485 594.125 237.478C594.54 237.468 594.95 237.557 595.357 237.747C595.788 237.948 596.105 238.212 596.309 238.54C596.513 238.867 596.527 239.213 596.352 239.577L596.51 239.65C596.962 239.357 597.419 239.217 597.883 239.23C598.346 239.242 598.793 239.349 599.224 239.55C599.98 239.903 600.402 240.356 600.49 240.911C600.578 241.465 600.36 242.09 599.836 242.785L596.871 246.719L595.432 246.048L598.251 242.307C598.575 241.877 598.719 241.503 598.683 241.187C598.647 240.87 598.442 240.624 598.068 240.449C597.694 240.275 597.304 240.238 596.898 240.34C596.589 240.428 596.296 240.591 596.018 240.83C595.747 241.072 595.453 241.404 595.134 241.827L592.858 244.847L591.419 244.176L594.237 240.435C594.561 240.005 594.701 239.63 594.657 239.309C594.622 238.992 594.412 238.745 594.03 238.567C593.664 238.396 593.277 238.37 592.868 238.49C592.587 238.571 592.306 238.726 592.024 238.953C591.751 239.184 591.45 239.518 591.121 239.955L588.845 242.976L587.405 242.305ZM599.962 248.16C599.434 247.914 599.116 247.62 599.01 247.28C598.903 246.94 599.036 246.523 599.409 246.028L604.545 239.213L605.984 239.884L601.1 246.366C600.921 246.603 600.839 246.792 600.853 246.934C600.875 247.08 601.008 247.21 601.252 247.324L601.655 247.511L600.853 248.575L599.962 248.16ZM604.77 250.562C604.103 250.251 603.609 249.842 603.289 249.334C602.982 248.823 602.861 248.268 602.928 247.669C602.999 247.063 603.257 246.467 603.7 245.879C604.11 245.334 604.622 244.881 605.236 244.518C605.858 244.159 606.532 243.951 607.258 243.892C607.991 243.837 608.716 243.976 609.432 244.31C610.033 244.591 610.504 244.965 610.844 245.434C611.197 245.898 611.355 246.432 611.318 247.035C611.29 247.641 611.025 248.278 610.522 248.944L610.279 249.267L605.766 247.162C605.343 246.965 605.058 246.818 604.912 246.72L604.733 246.87C604.796 246.918 604.823 246.97 604.815 247.024C604.821 247.075 604.81 247.147 604.783 247.241C604.743 247.426 604.72 247.536 604.715 247.573C604.624 247.985 604.656 248.359 604.811 248.692C604.974 249.03 605.251 249.29 605.641 249.472C606.056 249.665 606.48 249.737 606.913 249.687C607.36 249.634 607.756 249.495 608.102 249.269L609.59 249.963C608.901 250.484 608.135 250.814 607.293 250.954C606.457 251.087 605.616 250.956 604.77 250.562ZM605.67 245.999C605.84 245.991 605.979 245.998 606.084 246.018C606.203 246.035 606.328 246.073 606.458 246.134L608.874 247.26C609.012 247.325 609.119 247.394 609.195 247.468C609.284 247.539 609.366 247.635 609.439 247.757L609.667 247.674C609.62 247.604 609.596 247.549 609.593 247.509C609.604 247.465 609.621 247.406 609.646 247.33C609.705 247.222 609.737 247.077 609.742 246.895C609.768 246.569 609.688 246.275 609.5 246.013C609.318 245.744 609.053 245.528 608.703 245.365C608.345 245.198 607.977 245.118 607.597 245.125C607.224 245.126 606.857 245.211 606.497 245.382C606.362 245.445 606.216 245.537 606.059 245.657C606 245.707 605.944 245.744 605.893 245.769C605.847 245.786 605.771 245.799 605.665 245.808L605.67 245.999ZM612.281 254.064C611.435 253.67 610.851 253.155 610.527 252.52C610.211 251.889 610.256 251.203 610.66 250.461L612.112 251.138C611.951 251.528 611.95 251.886 612.11 252.213C612.271 252.539 612.587 252.813 613.059 253.032C613.457 253.218 613.823 253.302 614.156 253.283C614.503 253.26 614.768 253.127 614.951 252.884C615.097 252.69 615.136 252.5 615.068 252.313C615.008 252.13 614.886 251.957 614.701 251.794C614.53 251.627 614.276 251.416 613.94 251.163C613.474 250.819 613.107 250.518 612.841 250.258C612.584 250.002 612.419 249.703 612.348 249.36C612.29 249.013 612.415 248.636 612.723 248.227C613.155 247.654 613.729 247.331 614.443 247.257C615.158 247.184 615.89 247.322 616.638 247.67C617.418 248.035 617.937 248.513 618.193 249.107C618.448 249.701 618.402 250.338 618.055 251.019L616.701 250.387C616.846 250.019 616.84 249.692 616.682 249.405C616.53 249.112 616.259 248.874 615.868 248.692C615.502 248.521 615.168 248.447 614.864 248.471C614.561 248.494 614.331 248.609 614.175 248.817C614.045 248.989 614.009 249.161 614.066 249.333C614.137 249.502 614.256 249.664 614.425 249.82C614.606 249.972 614.864 250.17 615.198 250.413C615.678 250.753 616.052 251.058 616.321 251.329C616.59 251.599 616.758 251.915 616.827 252.276C616.901 252.63 616.778 253.019 616.46 253.442C616.022 254.022 615.43 254.371 614.683 254.487C613.936 254.603 613.135 254.463 612.281 254.064ZM619.226 257.303C618.381 256.909 617.796 256.394 617.472 255.759C617.157 255.127 617.201 254.441 617.606 253.7L619.057 254.377C618.896 254.766 618.895 255.125 619.056 255.451C619.216 255.778 619.532 256.051 620.004 256.271C620.402 256.457 620.768 256.54 621.101 256.521C621.448 256.499 621.713 256.366 621.897 256.122C622.042 255.929 622.081 255.739 622.013 255.552C621.953 255.369 621.831 255.196 621.646 255.032C621.475 254.865 621.222 254.655 620.885 254.401C620.419 254.058 620.053 253.756 619.787 253.497C619.529 253.241 619.364 252.942 619.293 252.598C619.235 252.252 619.361 251.875 619.668 251.466C620.1 250.893 620.674 250.569 621.388 250.496C622.103 250.422 622.835 250.56 623.583 250.909C624.364 251.273 624.882 251.752 625.138 252.346C625.394 252.94 625.348 253.577 625 254.257L623.646 253.626C623.791 253.258 623.785 252.931 623.627 252.644C623.475 252.35 623.204 252.112 622.813 251.93C622.447 251.76 622.113 251.686 621.81 251.709C621.506 251.732 621.276 251.848 621.12 252.056C620.99 252.228 620.954 252.4 621.011 252.572C621.082 252.74 621.202 252.902 621.37 253.058C621.552 253.211 621.809 253.409 622.143 253.651C622.623 253.991 622.997 254.297 623.266 254.567C623.535 254.838 623.703 255.154 623.772 255.515C623.846 255.869 623.723 256.257 623.405 256.68C622.967 257.261 622.375 257.609 621.628 257.726C620.881 257.842 620.08 257.701 619.226 257.303Z" fill="#464155"/>
<g filter="url(#filter4_d_1_1118)">
<rect x="0.083107" y="0.333324" width="59.743" height="59.743" rx="9.83086" transform="matrix(0.906308 0.422618 -0.601815 0.798636 616.271 169.56)" fill="#EBEBFF" stroke="#742750" stroke-width="0.545872"/>
<rect x="0.0829794" y="0.332812" width="59.7439" height="59.7439" rx="9.42713" transform="matrix(0.906308 0.422618 -0.601815 0.798636 615.361 165.907)" fill="white" stroke="#742750" stroke-width="0.545034"/>
<g filter="url(#filter5_i_1_1118)">
<path d="M618.868 194.164L629.859 210.958C632.117 214.409 638.278 214.186 641.014 210.555C643.724 206.958 641.096 202.633 636.218 202.661L612.249 202.799C607.172 202.828 604.436 198.326 607.257 194.583C610.105 190.804 616.517 190.572 618.868 194.164Z" stroke="#742750" stroke-width="2.24331" stroke-linecap="round"/>
</g>
</g>
<path d="M62.9021 240.939C62.2596 240.639 61.7199 240.261 61.2829 239.806C60.854 239.354 60.5942 238.831 60.5036 238.237C60.421 237.646 60.5794 237.013 60.9787 236.337L62.5523 237.071C62.2694 237.695 62.2597 238.232 62.5234 238.685C62.7952 239.141 63.2239 239.505 63.8094 239.778C64.3706 240.04 64.8962 240.145 65.3862 240.092C65.8762 240.04 66.2752 239.809 66.583 239.401C66.8098 239.1 66.885 238.811 66.8085 238.533C66.7402 238.259 66.584 238.007 66.3397 237.777C66.1009 237.54 65.7495 237.24 65.2857 236.879C64.7079 236.435 64.2588 236.046 63.9385 235.713C63.6183 235.379 63.4211 234.992 63.347 234.551C63.281 234.113 63.4451 233.633 63.8394 233.11C64.212 232.615 64.6688 232.257 65.21 232.035C65.7565 231.805 66.3371 231.713 66.952 231.758C67.5803 231.799 68.2035 231.964 68.8216 232.252C69.7487 232.684 70.3864 233.267 70.7346 234.001C71.091 234.738 71.0319 235.553 70.5573 236.446L69.008 235.723C69.2262 235.215 69.2293 234.766 69.0172 234.377C68.8105 233.98 68.4429 233.659 67.9143 233.412C67.4101 233.177 66.9414 233.084 66.5082 233.134C66.075 233.184 65.7315 233.377 65.4777 233.714C65.2779 233.979 65.2121 234.234 65.2804 234.479C65.3567 234.728 65.5089 234.963 65.7369 235.186C65.9702 235.401 66.3012 235.677 66.7298 236.012C67.3429 236.482 67.8123 236.895 68.1381 237.25C68.4692 237.598 68.6651 238.009 68.7257 238.483C68.7999 238.953 68.6236 239.471 68.197 240.037C67.6192 240.804 66.8593 241.273 65.9173 241.444C64.9888 241.611 63.9837 241.443 62.9021 240.939ZM69.893 244.01C69.3644 243.763 69.0469 243.47 68.9406 243.13C68.8342 242.79 68.9673 242.372 69.3399 241.878L72.0292 238.309L71.0046 237.831L71.7984 236.778L72.8231 237.255L74.4755 235.063L75.915 235.734L74.2625 237.927L75.6532 238.575L74.8594 239.629L73.4687 238.98L71.0467 242.194C70.8739 242.424 70.785 242.615 70.7799 242.767C70.7802 242.913 70.9186 243.05 71.1951 243.179L71.9148 243.514L71.1129 244.578L69.893 244.01ZM72.3447 245.153L76.8728 239.144L78.3122 239.815L78.1178 240.073C78.0368 240.181 77.9571 240.264 77.8787 240.325C77.8003 240.385 77.6989 240.439 77.5744 240.488L77.6723 240.664C78.1836 240.438 78.6519 240.327 79.077 240.332C79.5076 240.329 79.9547 240.436 80.4182 240.652L80.5768 240.726L79.6453 241.962L79.2793 241.791C78.7344 241.537 78.2184 241.471 77.7312 241.592C77.1249 241.726 76.5383 242.169 75.9712 242.922L73.7841 245.824L72.3447 245.153ZM79.8815 248.827C79.2147 248.516 78.7209 248.107 78.4002 247.599C78.0931 247.088 77.9727 246.533 78.0391 245.934C78.1109 245.329 78.3682 244.732 78.811 244.144C79.2214 243.6 79.7336 243.146 80.3475 242.783C80.9695 242.425 81.6434 242.216 82.369 242.157C83.1028 242.102 83.8275 242.242 84.5431 242.575C85.1449 242.856 85.6156 243.23 85.9552 243.699C86.3082 244.164 86.4665 244.697 86.4299 245.3C86.4014 245.907 86.1361 246.543 85.6339 247.21L85.3909 247.532L80.8773 245.427C80.4545 245.23 80.1698 245.083 80.0233 244.986L79.8449 245.135C79.9073 245.183 79.9345 245.235 79.9265 245.289C79.932 245.34 79.9214 245.413 79.8945 245.507C79.8543 245.691 79.8315 245.802 79.8262 245.838C79.735 246.251 79.767 246.624 79.9221 246.958C80.0853 247.295 80.3621 247.555 80.7525 247.737C81.1672 247.93 81.5912 248.002 82.0244 247.952C82.4711 247.899 82.8675 247.76 83.2136 247.534L84.7019 248.228C84.0125 248.749 83.2468 249.079 82.4049 249.219C81.5685 249.352 80.7273 249.222 79.8815 248.827ZM80.7813 244.264C80.9519 244.256 81.0901 244.263 81.1957 244.283C81.3149 244.3 81.4396 244.339 81.5697 244.399L83.985 245.526C84.1233 245.59 84.2304 245.659 84.3064 245.733C84.3959 245.804 84.4774 245.9 84.5508 246.022L84.7781 245.939C84.7319 245.869 84.7074 245.814 84.7046 245.774C84.7153 245.73 84.7328 245.671 84.757 245.595C84.8163 245.487 84.8485 245.342 84.8535 245.161C84.8799 244.834 84.7993 244.54 84.6119 244.278C84.4299 244.009 84.164 243.793 83.8143 243.63C83.4565 243.463 83.088 243.383 82.7089 243.391C82.3352 243.391 81.9684 243.476 81.6086 243.647C81.4734 243.71 81.3273 243.802 81.1705 243.923C81.1111 243.972 81.0556 244.009 81.0042 244.034C80.9582 244.051 80.8825 244.064 80.7769 244.073L80.7813 244.264ZM86.4654 251.897C85.7986 251.586 85.3779 251.182 85.2035 250.684C85.0291 250.186 85.1498 249.662 85.5656 249.11C85.9868 248.551 86.567 248.226 87.3061 248.135C87.8367 248.072 88.4976 248.143 89.2888 248.347L91.7153 248.999C92.0096 248.594 92.1198 248.229 92.046 247.904C91.9613 247.565 91.7034 247.294 91.2724 247.093C90.9227 246.93 90.5502 246.878 90.155 246.935C89.7651 246.986 89.4243 247.147 89.1324 247.417L87.693 246.746C88.2928 246.154 88.9908 245.811 89.7867 245.718C90.5908 245.628 91.3466 245.748 92.0541 246.078C92.4608 246.267 92.8011 246.494 93.0752 246.757C93.3574 247.025 93.549 247.317 93.6499 247.635C93.7781 248.063 93.7452 248.479 93.5511 248.882C93.3652 249.289 93.0832 249.744 92.7052 250.246L90.2508 253.503L88.8113 252.831L88.9652 252.627C89.0894 252.462 89.2867 252.288 89.5571 252.104L89.443 251.949C89.0724 252.135 88.6882 252.251 88.2902 252.298C87.7487 252.346 87.1404 252.212 86.4654 251.897ZM87.5602 251.013C87.8937 251.169 88.2527 251.254 88.6372 251.268C89.0841 251.273 89.4576 251.201 89.7579 251.05C89.9364 250.959 90.0892 250.866 90.2163 250.77C90.3434 250.674 90.5042 250.541 90.6988 250.37C90.7934 250.289 90.8772 250.236 90.9503 250.212C91.0287 250.18 91.1073 250.178 91.1859 250.205L91.2789 250.016C90.5229 249.838 90.0054 249.708 89.7263 249.626L88.9541 249.426C88.4176 249.292 87.9923 249.258 87.6784 249.325C87.4077 249.393 87.1914 249.534 87.0294 249.749C86.8512 249.985 86.8083 250.217 86.9009 250.444C87.007 250.668 87.2268 250.858 87.5602 251.013ZM91.7627 254.208L96.2907 248.199L97.7302 248.87L97.5358 249.128C97.4548 249.235 97.3751 249.319 97.2967 249.38C97.2183 249.44 97.1169 249.494 96.9924 249.543L97.0903 249.719C97.6179 249.5 98.082 249.387 98.4828 249.381C98.8971 249.37 99.3076 249.46 99.7142 249.65C100.145 249.851 100.463 250.115 100.666 250.442C100.87 250.77 100.885 251.116 100.709 251.479L100.868 251.553C101.32 251.26 101.777 251.12 102.24 251.133C102.703 251.145 103.15 251.252 103.581 251.453C104.338 251.806 104.76 252.259 104.848 252.813C104.935 253.368 104.717 253.992 104.194 254.687L101.229 258.622L99.7894 257.951L102.608 254.21C102.932 253.78 103.076 253.406 103.041 253.089C103.005 252.772 102.8 252.527 102.426 252.352C102.051 252.178 101.661 252.141 101.255 252.242C100.947 252.331 100.653 252.494 100.375 252.733C100.105 252.974 99.8103 253.307 99.4917 253.73L97.2155 256.75L95.776 256.079L98.595 252.338C98.919 251.908 99.059 251.533 99.0149 251.212C98.979 250.895 98.77 250.648 98.3877 250.469C98.0218 250.299 97.6345 250.273 97.2258 250.392C96.9444 250.474 96.6631 250.629 96.3819 250.856C96.1089 251.087 95.8077 251.421 95.4783 251.858L93.2021 254.879L91.7627 254.208ZM104.32 260.063C103.791 259.817 103.474 259.523 103.367 259.183C103.261 258.843 103.394 258.426 103.767 257.931L108.902 251.116L110.342 251.787L105.457 258.269C105.279 258.506 105.197 258.695 105.211 258.837C105.233 258.983 105.366 259.113 105.61 259.226L106.012 259.414L105.21 260.478L104.32 260.063ZM107.772 261.673L106.332 261.001L110.86 254.992L112.3 255.664L107.772 261.673ZM112.163 254.554C111.903 254.433 111.733 254.257 111.654 254.026C111.589 253.792 111.64 253.564 111.807 253.342C111.974 253.12 112.202 252.979 112.489 252.919C112.789 252.856 113.069 252.885 113.33 253.006C113.598 253.131 113.765 253.311 113.83 253.545C113.901 253.772 113.853 253.996 113.686 254.218C113.518 254.44 113.288 254.585 112.996 254.652C112.709 254.712 112.431 254.679 112.163 254.554ZM109.346 262.407L113.874 256.398L115.314 257.069L115.119 257.327C115.038 257.435 114.958 257.518 114.88 257.579C114.802 257.639 114.7 257.693 114.576 257.742L114.674 257.918C115.201 257.699 115.665 257.587 116.066 257.58C116.48 257.57 116.891 257.659 117.298 257.849C118.322 258.327 118.772 258.977 118.646 259.8C118.606 260.101 118.511 260.381 118.36 260.64C118.209 260.898 117.998 261.207 117.728 261.565L115.079 265.08L113.628 264.403L116.277 260.888C116.514 260.573 116.68 260.302 116.774 260.075C116.877 259.851 116.91 259.654 116.875 259.482C116.825 259.198 116.589 258.957 116.166 258.76C115.678 258.532 115.211 258.489 114.765 258.629C114.478 258.718 114.195 258.882 113.917 259.12C113.638 259.358 113.321 259.714 112.964 260.186L110.785 263.078L109.346 262.407ZM119.635 267.364C118.968 267.053 118.474 266.644 118.153 266.136C117.846 265.625 117.726 265.07 117.792 264.471C117.864 263.866 118.121 263.269 118.564 262.681C118.975 262.137 119.487 261.683 120.101 261.321C120.723 260.962 121.397 260.753 122.122 260.694C122.856 260.639 123.581 260.779 124.296 261.113C124.898 261.393 125.369 261.768 125.708 262.236C126.061 262.701 126.22 263.235 126.183 263.837C126.155 264.444 125.889 265.08 125.387 265.747L125.144 266.069L120.631 263.965C120.208 263.767 119.923 263.62 119.777 263.523L119.598 263.672C119.661 263.72 119.688 263.772 119.68 263.826C119.685 263.877 119.675 263.95 119.648 264.044C119.607 264.228 119.585 264.339 119.579 264.375C119.488 264.788 119.52 265.161 119.675 265.495C119.839 265.832 120.115 266.092 120.506 266.274C120.92 266.468 121.344 266.539 121.778 266.49C122.224 266.436 122.621 266.297 122.967 266.071L124.455 266.765C123.766 267.286 123 267.617 122.158 267.757C121.322 267.89 120.481 267.759 119.635 267.364ZM120.535 262.801C120.705 262.794 120.843 262.8 120.949 262.82C121.068 262.837 121.193 262.876 121.323 262.936L123.738 264.063C123.876 264.127 123.984 264.197 124.06 264.271C124.149 264.342 124.231 264.438 124.304 264.559L124.531 264.476C124.485 264.406 124.461 264.351 124.458 264.311C124.469 264.268 124.486 264.208 124.51 264.132C124.57 264.024 124.602 263.879 124.607 263.698C124.633 263.371 124.553 263.077 124.365 262.815C124.183 262.546 123.917 262.33 123.567 262.167C123.21 262 122.841 261.921 122.462 261.928C122.088 261.928 121.722 262.014 121.362 262.185C121.227 262.248 121.081 262.339 120.924 262.46C120.864 262.51 120.809 262.547 120.757 262.571C120.711 262.588 120.636 262.601 120.53 262.61L120.535 262.801ZM127.024 270.81C126.43 270.533 126.003 270.159 125.742 269.689C125.494 269.215 125.423 268.683 125.527 268.093C125.631 267.502 125.913 266.902 126.372 266.293C126.831 265.684 127.365 265.202 127.973 264.846C128.582 264.491 129.207 264.289 129.849 264.239C130.504 264.186 131.128 264.298 131.722 264.575C132.177 264.788 132.506 265.037 132.707 265.325C132.916 265.616 133.026 266.002 133.038 266.482L133.282 266.465C133.271 266.363 133.28 266.27 133.31 266.187C133.345 266.097 133.403 265.998 133.484 265.891L135.331 263.44L136.77 264.111L130.59 272.313L129.15 271.642L129.344 271.384C129.425 271.276 129.505 271.192 129.584 271.132C129.667 271.065 129.766 271.014 129.88 270.98L129.79 270.792C129.249 271.015 128.767 271.129 128.345 271.135C127.928 271.135 127.487 271.026 127.024 270.81ZM128.143 269.85C128.509 270.021 128.899 270.086 129.313 270.047C129.727 270.008 130.132 269.872 130.527 269.64C130.922 269.407 131.265 269.098 131.556 268.711C131.848 268.324 132.029 267.938 132.098 267.554C132.168 267.17 132.125 266.826 131.97 266.521C131.815 266.217 131.554 265.979 131.188 265.808C130.627 265.547 130.037 265.528 129.417 265.752C128.798 265.977 128.266 266.383 127.824 266.97C127.381 267.558 127.183 268.119 127.23 268.655C127.277 269.19 127.582 269.588 128.143 269.85Z" fill="#464155"/>
<g filter="url(#filter6_d_1_1118)">
<rect x="0.083107" y="0.333324" width="59.743" height="59.743" rx="9.83086" transform="matrix(0.906308 0.422618 -0.601815 0.798636 118.242 180.1)" fill="#EBEBFF" stroke="#742750" stroke-width="0.545872"/>
<rect x="0.0829794" y="0.332812" width="59.7439" height="59.7439" rx="9.42713" transform="matrix(0.906308 0.422618 -0.601815 0.798636 117.544 176.546)" fill="white" stroke="#742750" stroke-width="0.545034"/>
<g filter="url(#filter7_i_1_1118)">
<path d="M115.066 207.345L122.519 210.82M122.519 210.82C126.985 209.683 129.548 208.582 131.688 205.716C132.604 204.489 134.457 203.868 135.847 204.516L143.729 208.192M122.519 210.82L136.749 217.455M122.519 210.82C123.106 214.458 122.839 216.815 120.389 220.315C119.581 221.471 119.875 222.889 121.163 223.489L129.331 227.298" stroke="#742750" stroke-width="2.24331" stroke-linecap="round"/>
</g>
</g>
<path d="M164.963 106.983L163.353 106.232L172.863 99.5831L174.571 100.379L171.721 110.134L170.111 109.383L170.78 107.27L167.011 105.512L164.963 106.983ZM168.361 104.529L171.216 105.86L172.289 102.467C172.453 101.973 172.624 101.607 172.802 101.37L172.607 101.279C172.413 101.537 172.091 101.833 171.642 102.166L168.361 104.529ZM174.878 111.766C173.861 111.292 173.415 110.638 173.537 109.804C173.585 109.507 173.685 109.229 173.836 108.971C173.987 108.712 174.198 108.403 174.468 108.045L177.116 104.53L178.556 105.201L175.899 108.727C175.445 109.329 175.25 109.799 175.313 110.139C175.379 110.431 175.615 110.672 176.021 110.861C176.501 111.085 176.964 111.127 177.411 110.986C177.703 110.89 177.989 110.723 178.267 110.485C178.554 110.25 178.872 109.9 179.223 109.434L181.41 106.532L182.85 107.203L178.322 113.212L176.882 112.541L177.077 112.283C177.158 112.176 177.237 112.092 177.316 112.031C177.4 111.964 177.498 111.913 177.612 111.879L177.522 111.692C176.981 111.914 176.503 112.03 176.089 112.04C175.688 112.047 175.285 111.956 174.878 111.766ZM182.027 114.94C181.498 114.693 181.18 114.4 181.074 114.06C180.968 113.72 181.101 113.302 181.473 112.808L184.163 109.239L183.138 108.761L183.932 107.708L184.957 108.186L186.609 105.993L188.049 106.664L186.396 108.857L187.787 109.505L186.993 110.559L185.602 109.91L183.18 113.124C183.007 113.354 182.918 113.545 182.913 113.697C182.914 113.843 183.052 113.98 183.329 114.109L184.048 114.444L183.246 115.509L182.027 114.94ZM187.393 117.602C186.727 117.291 186.233 116.882 185.912 116.374C185.591 115.866 185.463 115.307 185.527 114.698C185.604 114.085 185.875 113.47 186.339 112.854C186.787 112.259 187.329 111.795 187.965 111.462C188.614 111.126 189.296 110.95 190.011 110.935C190.731 110.912 191.425 111.057 192.092 111.367C192.759 111.678 193.252 112.088 193.573 112.596C193.899 113.096 194.03 113.652 193.967 114.261C193.908 114.863 193.655 115.462 193.207 116.057C192.748 116.666 192.191 117.142 191.536 117.486C190.895 117.826 190.212 118.011 189.486 118.041C188.766 118.063 188.068 117.917 187.393 117.602ZM188.228 116.495C188.602 116.669 189.004 116.741 189.435 116.709C189.871 116.67 190.286 116.535 190.681 116.302C191.084 116.074 191.434 115.763 191.731 115.368C192.012 114.996 192.18 114.619 192.236 114.239C192.306 113.855 192.255 113.506 192.083 113.194C191.912 112.882 191.639 112.638 191.265 112.464C190.891 112.29 190.489 112.218 190.058 112.25C189.633 112.274 189.219 112.401 188.816 112.629C188.427 112.854 188.089 113.157 187.803 113.537C187.5 113.938 187.319 114.333 187.257 114.72C187.196 115.108 187.247 115.456 187.41 115.765C187.581 116.077 187.854 116.321 188.228 116.495ZM192.233 119.699L196.762 113.69L198.201 114.362L198.007 114.62C197.926 114.727 197.846 114.811 197.768 114.871C197.689 114.932 197.588 114.986 197.463 115.034L197.561 115.211C198.089 114.992 198.553 114.879 198.954 114.872C199.368 114.862 199.778 114.952 200.185 115.142C200.616 115.343 200.933 115.607 201.137 115.934C201.341 116.262 201.355 116.607 201.18 116.971L201.339 117.045C201.79 116.752 202.248 116.612 202.711 116.624C203.174 116.637 203.621 116.744 204.052 116.945C204.808 117.297 205.23 117.751 205.318 118.305C205.406 118.859 205.188 119.484 204.664 120.179L201.7 124.114L200.26 123.442L203.079 119.701C203.403 119.272 203.547 118.898 203.511 118.581C203.475 118.264 203.27 118.018 202.896 117.844C202.522 117.67 202.132 117.633 201.726 117.734C201.418 117.823 201.124 117.986 200.846 118.224C200.576 118.466 200.281 118.799 199.963 119.221L197.686 122.242L196.247 121.571L199.066 117.83C199.39 117.4 199.53 117.025 199.486 116.704C199.45 116.387 199.241 116.139 198.859 115.961C198.493 115.79 198.105 115.765 197.697 115.884C197.415 115.966 197.134 116.12 196.853 116.348C196.58 116.579 196.279 116.913 195.949 117.35L193.673 120.371L192.233 119.699ZM205.08 125.849C204.413 125.538 203.992 125.134 203.818 124.636C203.643 124.139 203.764 123.614 204.18 123.062C204.601 122.503 205.181 122.178 205.92 122.087C206.451 122.024 207.112 122.095 207.903 122.299L210.329 122.952C210.624 122.546 210.734 122.181 210.66 121.856C210.575 121.517 210.318 121.246 209.887 121.045C209.537 120.882 209.164 120.83 208.769 120.888C208.379 120.938 208.038 121.099 207.747 121.369L206.307 120.698C206.907 120.106 207.605 119.764 208.401 119.67C209.205 119.58 209.961 119.7 210.668 120.03C211.075 120.22 211.415 120.446 211.689 120.709C211.972 120.977 212.163 121.269 212.264 121.588C212.392 122.015 212.359 122.431 212.165 122.834C211.979 123.242 211.697 123.696 211.319 124.198L208.865 127.455L207.425 126.783L207.579 126.579C207.704 126.414 207.901 126.24 208.171 126.056L208.057 125.901C207.687 126.087 207.302 126.203 206.904 126.25C206.363 126.298 205.755 126.164 205.08 125.849ZM206.174 124.965C206.508 125.121 206.867 125.206 207.251 125.221C207.698 125.226 208.072 125.153 208.372 125.002C208.551 124.911 208.703 124.818 208.83 124.722C208.957 124.626 209.118 124.493 209.313 124.322C209.408 124.241 209.491 124.188 209.564 124.164C209.643 124.133 209.721 124.13 209.8 124.157L209.893 123.968C209.137 123.79 208.62 123.66 208.34 123.578L207.568 123.378C207.032 123.244 206.606 123.211 206.292 123.277C206.022 123.345 205.805 123.486 205.643 123.701C205.465 123.937 205.422 124.169 205.515 124.396C205.621 124.62 205.841 124.81 206.174 124.965ZM212.512 129.155C211.983 128.909 211.665 128.615 211.559 128.275C211.453 127.935 211.586 127.518 211.958 127.023L214.648 123.454L213.623 122.977L214.417 121.923L215.442 122.401L217.094 120.208L218.534 120.879L216.881 123.072L218.272 123.721L217.478 124.774L216.087 124.126L213.665 127.34C213.492 127.569 213.403 127.76 213.398 127.913C213.399 128.058 213.537 128.195 213.814 128.324L214.533 128.66L213.731 129.724L212.512 129.155ZM217.854 131.806C217.187 131.495 216.693 131.086 216.373 130.578C216.066 130.067 215.945 129.512 216.012 128.913C216.083 128.308 216.341 127.711 216.783 127.123C217.194 126.579 217.706 126.125 218.32 125.762C218.942 125.404 219.616 125.195 220.342 125.136C221.075 125.081 221.8 125.221 222.516 125.554C223.117 125.835 223.588 126.21 223.928 126.678C224.281 127.143 224.439 127.676 224.402 128.279C224.374 128.886 224.109 129.522 223.606 130.189L223.363 130.511L218.85 128.406C218.427 128.209 218.142 128.062 217.996 127.965L217.817 128.114C217.88 128.162 217.907 128.214 217.899 128.268C217.905 128.319 217.894 128.392 217.867 128.486C217.827 128.67 217.804 128.781 217.799 128.817C217.708 129.23 217.739 129.603 217.895 129.937C218.058 130.274 218.335 130.534 218.725 130.716C219.14 130.909 219.564 130.981 219.997 130.931C220.444 130.878 220.84 130.739 221.186 130.513L222.674 131.207C221.985 131.728 221.219 132.058 220.377 132.198C219.541 132.331 218.7 132.201 217.854 131.806ZM218.754 127.243C218.924 127.236 219.063 127.242 219.168 127.262C219.287 127.279 219.412 127.318 219.542 127.378L221.958 128.505C222.096 128.569 222.203 128.638 222.279 128.713C222.368 128.783 222.45 128.879 222.523 129.001L222.751 128.918C222.704 128.848 222.68 128.793 222.677 128.753C222.688 128.71 222.705 128.65 222.729 128.574C222.789 128.466 222.821 128.321 222.826 128.14C222.852 127.813 222.772 127.519 222.584 127.257C222.402 126.988 222.137 126.772 221.787 126.609C221.429 126.442 221.061 126.362 220.681 126.37C220.308 126.37 219.941 126.455 219.581 126.627C219.446 126.689 219.3 126.781 219.143 126.902C219.084 126.951 219.028 126.989 218.977 127.013C218.931 127.03 218.855 127.043 218.749 127.052L218.754 127.243ZM225.243 135.252C224.649 134.975 224.222 134.601 223.961 134.131C223.714 133.657 223.642 133.125 223.746 132.535C223.851 131.944 224.132 131.344 224.591 130.735C225.05 130.126 225.584 129.644 226.193 129.288C226.801 128.933 227.426 128.73 228.068 128.681C228.723 128.628 229.348 128.74 229.941 129.017C230.397 129.229 230.725 129.479 230.926 129.767C231.135 130.058 231.246 130.444 231.258 130.924L231.501 130.907C231.49 130.805 231.499 130.712 231.529 130.629C231.564 130.539 231.622 130.44 231.703 130.333L233.55 127.882L234.989 128.553L228.809 136.755L227.369 136.083L227.564 135.826C227.645 135.718 227.724 135.634 227.803 135.574C227.887 135.506 227.985 135.456 228.099 135.421L228.009 135.234C227.468 135.456 226.986 135.571 226.564 135.577C226.147 135.576 225.707 135.468 225.243 135.252ZM226.362 134.292C226.728 134.463 227.118 134.528 227.532 134.489C227.947 134.45 228.351 134.314 228.746 134.082C229.141 133.849 229.484 133.54 229.776 133.153C230.067 132.766 230.248 132.38 230.317 131.996C230.387 131.612 230.344 131.268 230.189 130.963C230.034 130.658 229.774 130.421 229.408 130.25C228.847 129.988 228.256 129.97 227.637 130.194C227.017 130.418 226.486 130.824 226.043 131.412C225.6 132 225.402 132.561 225.45 133.096C225.497 133.632 225.801 134.03 226.362 134.292Z" fill="#464155"/>
<g filter="url(#filter8_d_1_1118)">
<rect x="0.083107" y="0.333324" width="59.743" height="59.743" rx="9.83086" transform="matrix(0.906308 0.422618 -0.601815 0.798636 220.292 46.5803)" fill="#EBEBFF" stroke="#742750" stroke-width="0.545872"/>
<rect x="0.0829794" y="0.332812" width="59.7439" height="59.7439" rx="9.42713" transform="matrix(0.906308 0.422618 -0.601815 0.798636 219.383 42.9274)" fill="white" stroke="#742750" stroke-width="0.545034"/>
<g filter="url(#filter9_i_1_1118)">
<path d="M217.718 75.2104C221.654 69.9877 229.547 67.9469 235.349 70.6522M235.349 70.6522L233.631 67.3916M235.349 70.6522L231.43 72.1967M238.727 85.007C235.407 89.4134 229.269 91.5548 223.947 90.4919M223.947 90.4919L227.663 87.5279M223.947 90.4919L226.709 94.0243M222.653 78.6319L223.441 81.9782C223.512 82.2826 223.873 82.451 224.247 82.3544L235.059 79.5591" stroke="#742750" stroke-width="2.24331" stroke-linecap="round"/>
</g>
</g>
<g filter="url(#filter10_d_1_1118)">
<path d="M512.729 141.423C512.729 143.983 511.829 146.562 510.137 148.846L453.388 225.469C447.01 234.081 433.839 237.348 424.183 232.712L329.775 187.389C326.775 185.949 324.963 183.306 324.924 180.311L324.751 167.149L391.406 92.7573C396.264 87.3357 404.792 85.2332 411.602 87.7784L512.729 125.573L512.729 141.423Z" fill="#EBEBFF" stroke="#742750" stroke-width="0.545872"/>
<path d="M411.737 71.2621L505.53 114.999C512.879 118.426 514.881 126.454 510.001 132.93L447.719 215.58C442.839 222.056 432.925 224.528 425.576 221.101L331.783 177.364C324.434 173.937 322.433 165.909 327.312 159.433L389.594 76.783C394.474 70.3071 404.388 67.8353 411.737 71.2621Z" fill="url(#paint0_linear_1_1118)" stroke="#742750" stroke-width="0.545034"/>
</g>
<g filter="url(#filter11_i_1_1118)">
<path d="M399.422 182.782C418.859 192.262 444.163 185.244 455.941 167.108C467.719 148.971 461.511 126.583 442.074 117.103C422.637 107.623 397.333 114.641 385.555 132.778C373.776 150.914 379.985 173.302 399.422 182.782Z" fill="#A83C76"/>
</g>
<g filter="url(#filter12_i_1_1118)">
<path d="M398.614 179.549C418.05 189.028 443.355 182.011 455.133 163.874C466.911 145.738 460.702 123.35 441.266 113.87C421.829 104.39 396.524 111.408 384.746 129.544C372.968 147.681 379.177 170.069 398.614 179.549Z" fill="#742750"/>
</g>
<path d="M403.542 161.363L397.81 134.911L411.983 148.366L452.895 140.134L403.542 161.363Z" fill="#40B877"/>
<path d="M404.33 222.881V212.038L425.192 221.562C433.114 225.178 442.484 222.846 447.786 215.937L463.404 195.587L463.03 211.29L453.797 224.086C446.806 233.775 433.879 237.064 423.108 231.894L404.33 222.881Z" fill="url(#paint1_linear_1_1118)"/>
<g filter="url(#filter13_d_1_1118)">
<path d="M257.032 100.246L327.574 132.754C329.97 133.858 332.222 135.251 334.279 136.903L337.728 139.67" stroke="#B3ADC7" stroke-width="2.99108" stroke-linecap="round"/>
</g>
<g filter="url(#filter14_d_1_1118)">
<path d="M484.017 190.594L509.084 202.026C520.951 207.439 534.986 203.885 542.847 193.476C550.799 182.947 565.051 179.447 576.975 185.096L592.02 192.222" stroke="#B3ADC7" stroke-width="2.99108" stroke-linecap="round"/>
</g>
<g filter="url(#filter15_d_1_1118)">
<path d="M149.727 186.24C157.613 176.163 171.395 172.835 183.011 178.204L315.566 239.471C327.673 245.067 342.042 241.489 350.112 230.87L360.481 217.226C362.569 214.478 365.511 212.503 368.844 211.609" stroke="#B3ADC7" stroke-width="2.99108" stroke-linecap="round"/>
</g>
<g filter="url(#filter16_d_1_1118)">
<path d="M467.141 93.5163L498.231 52.3375C513.044 32.7178 539.514 26.0501 561.853 36.3112L670.734 86.3223" stroke="#B3ADC7" stroke-width="2.99108" stroke-linecap="round"/>
</g>
<circle cx="147.765" cy="188.977" r="2.1524" fill="white" stroke="#742750" stroke-width="0.545034"/>
<circle cx="255.269" cy="99.2552" r="2.1524" fill="white" stroke="#742750" stroke-width="0.545034"/>
<circle cx="592.332" cy="193.018" r="2.1524" fill="white" stroke="#742750" stroke-width="0.545034"/>
<circle cx="672.354" cy="87.1307" r="2.1524" fill="white" stroke="#742750" stroke-width="0.545034"/>
</g>
</g>
<path d="M12 0.5H867C873.351 0.5 878.5 5.64873 878.5 12V308C878.5 314.351 873.351 319.5 867 319.5H12C5.64873 319.5 0.5 314.351 0.5 308V12C0.500004 5.64873 5.64873 0.5 12 0.5Z" stroke="#EBEAF1"/>
<defs>
<filter id="filter0_f_1_1118" x="400.463" y="-97.1225" width="565.438" height="520.326" filterUnits="userSpaceOnUse" color-interpolation-filters="sRGB">
<feFlood flood-opacity="0" result="BackgroundImageFix"/>
<feBlend mode="normal" in="SourceGraphic" in2="BackgroundImageFix" result="shape"/>
<feGaussianBlur stdDeviation="74.7769" result="effect1_foregroundBlur_1_1118"/>
</filter>
<filter id="filter1_f_1_1118" x="-94.5591" y="-85.1585" width="565.438" height="520.326" filterUnits="userSpaceOnUse" color-interpolation-filters="sRGB">
<feFlood flood-opacity="0" result="BackgroundImageFix"/>
<feBlend mode="normal" in="SourceGraphic" in2="BackgroundImageFix" result="shape"/>
<feGaussianBlur stdDeviation="74.7769" result="effect1_foregroundBlur_1_1118"/>
</filter>
<filter id="filter2_d_1_1118" x="659.01" y="66.2972" width="88" height="76.9755" filterUnits="userSpaceOnUse" color-interpolation-filters="sRGB">
<feFlood flood-opacity="0" result="BackgroundImageFix"/>
<feColorMatrix in="SourceAlpha" type="matrix" values="0 0 0 0 0 0 0 0 0 0 0 0 0 0 0 0 0 0 127 0" result="hardAlpha"/>
<feOffset dx="0.747769" dy="3.73885"/>
<feGaussianBlur stdDeviation="1.12165"/>
<feComposite in2="hardAlpha" operator="out"/>
<feColorMatrix type="matrix" values="0 0 0 0 0 0 0 0 0 0 0 0 0 0 0 0 0 0 0.07 0"/>
<feBlend mode="normal" in2="BackgroundImageFix" result="effect1_dropShadow_1_1118"/>
<feBlend mode="normal" in="SourceGraphic" in2="effect1_dropShadow_1_1118" result="shape"/>
</filter>
<filter id="filter3_i_1_1118" x="689.612" y="88.6729" width="28.4478" height="23.3316" filterUnits="userSpaceOnUse" color-interpolation-filters="sRGB">
<feFlood flood-opacity="0" result="BackgroundImageFix"/>
<feBlend mode="normal" in="SourceGraphic" in2="BackgroundImageFix" result="shape"/>
<feColorMatrix in="SourceAlpha" type="matrix" values="0 0 0 0 0 0 0 0 0 0 0 0 0 0 0 0 0 0 127 0" result="hardAlpha"/>
<feOffset/>
<feGaussianBlur stdDeviation="0.373885"/>
<feComposite in2="hardAlpha" operator="arithmetic" k2="-1" k3="1"/>
<feColorMatrix type="matrix" values="0 0 0 0 0 0 0 0 0 0 0 0 0 0 0 0 0 0 0.25 0"/>
<feBlend mode="normal" in2="shape" result="effect1_innerShadow_1_1118"/>
</filter>
<filter id="filter4_d_1_1118" x="581.45" y="168.954" width="87.9999" height="76.9753" filterUnits="userSpaceOnUse" color-interpolation-filters="sRGB">
<feFlood flood-opacity="0" result="BackgroundImageFix"/>
<feColorMatrix in="SourceAlpha" type="matrix" values="0 0 0 0 0 0 0 0 0 0 0 0 0 0 0 0 0 0 127 0" result="hardAlpha"/>
<feOffset dx="0.747769" dy="3.73885"/>
<feGaussianBlur stdDeviation="1.12165"/>
<feComposite in2="hardAlpha" operator="out"/>
<feColorMatrix type="matrix" values="0 0 0 0 0 0 0 0 0 0 0 0 0 0 0 0 0 0 0.07 0"/>
<feBlend mode="normal" in2="BackgroundImageFix" result="effect1_dropShadow_1_1118"/>
<feBlend mode="normal" in="SourceGraphic" in2="effect1_dropShadow_1_1118" result="shape"/>
</filter>
<filter id="filter5_i_1_1118" x="604.902" y="190.59" width="38.4231" height="23.8405" filterUnits="userSpaceOnUse" color-interpolation-filters="sRGB">
<feFlood flood-opacity="0" result="BackgroundImageFix"/>
<feBlend mode="normal" in="SourceGraphic" in2="BackgroundImageFix" result="shape"/>
<feColorMatrix in="SourceAlpha" type="matrix" values="0 0 0 0 0 0 0 0 0 0 0 0 0 0 0 0 0 0 127 0" result="hardAlpha"/>
<feOffset/>
<feGaussianBlur stdDeviation="0.373885"/>
<feComposite in2="hardAlpha" operator="arithmetic" k2="-1" k3="1"/>
<feColorMatrix type="matrix" values="0 0 0 0 0 0 0 0 0 0 0 0 0 0 0 0 0 0 0.25 0"/>
<feBlend mode="normal" in2="shape" result="effect1_innerShadow_1_1118"/>
</filter>
<filter id="filter6_d_1_1118" x="83.6323" y="179.594" width="87.7884" height="76.8764" filterUnits="userSpaceOnUse" color-interpolation-filters="sRGB">
<feFlood flood-opacity="0" result="BackgroundImageFix"/>
<feColorMatrix in="SourceAlpha" type="matrix" values="0 0 0 0 0 0 0 0 0 0 0 0 0 0 0 0 0 0 127 0" result="hardAlpha"/>
<feOffset dx="0.747769" dy="3.73885"/>
<feGaussianBlur stdDeviation="1.12165"/>
<feComposite in2="hardAlpha" operator="out"/>
<feColorMatrix type="matrix" values="0 0 0 0 0 0 0 0 0 0 0 0 0 0 0 0 0 0 0.07 0"/>
<feBlend mode="normal" in2="BackgroundImageFix" result="effect1_dropShadow_1_1118"/>
<feBlend mode="normal" in="SourceGraphic" in2="effect1_dropShadow_1_1118" result="shape"/>
</filter>
<filter id="filter7_i_1_1118" x="113.846" y="203.237" width="31.1042" height="25.0745" filterUnits="userSpaceOnUse" color-interpolation-filters="sRGB">
<feFlood flood-opacity="0" result="BackgroundImageFix"/>
<feBlend mode="normal" in="SourceGraphic" in2="BackgroundImageFix" result="shape"/>
<feColorMatrix in="SourceAlpha" type="matrix" values="0 0 0 0 0 0 0 0 0 0 0 0 0 0 0 0 0 0 127 0" result="hardAlpha"/>
<feOffset/>
<feGaussianBlur stdDeviation="0.373885"/>
<feComposite in2="hardAlpha" operator="arithmetic" k2="-1" k3="1"/>
<feColorMatrix type="matrix" values="0 0 0 0 0 0 0 0 0 0 0 0 0 0 0 0 0 0 0.25 0"/>
<feBlend mode="normal" in2="shape" result="effect1_innerShadow_1_1118"/>
</filter>
<filter id="filter8_d_1_1118" x="185.471" y="45.9752" width="88" height="76.9753" filterUnits="userSpaceOnUse" color-interpolation-filters="sRGB">
<feFlood flood-opacity="0" result="BackgroundImageFix"/>
<feColorMatrix in="SourceAlpha" type="matrix" values="0 0 0 0 0 0 0 0 0 0 0 0 0 0 0 0 0 0 127 0" result="hardAlpha"/>
<feOffset dx="0.747769" dy="3.73885"/>
<feGaussianBlur stdDeviation="1.12165"/>
<feComposite in2="hardAlpha" operator="out"/>
<feColorMatrix type="matrix" values="0 0 0 0 0 0 0 0 0 0 0 0 0 0 0 0 0 0 0.07 0"/>
<feBlend mode="normal" in2="BackgroundImageFix" result="effect1_dropShadow_1_1118"/>
<feBlend mode="normal" in="SourceGraphic" in2="effect1_dropShadow_1_1118" result="shape"/>
</filter>
<filter id="filter9_i_1_1118" x="216.498" y="66.3779" width="23.4498" height="28.6599" filterUnits="userSpaceOnUse" color-interpolation-filters="sRGB">
<feFlood flood-opacity="0" result="BackgroundImageFix"/>
<feBlend mode="normal" in="SourceGraphic" in2="BackgroundImageFix" result="shape"/>
<feColorMatrix in="SourceAlpha" type="matrix" values="0 0 0 0 0 0 0 0 0 0 0 0 0 0 0 0 0 0 127 0" result="hardAlpha"/>
<feOffset/>
<feGaussianBlur stdDeviation="0.373885"/>
<feComposite in2="hardAlpha" operator="arithmetic" k2="-1" k3="1"/>
<feColorMatrix type="matrix" values="0 0 0 0 0 0 0 0 0 0 0 0 0 0 0 0 0 0 0.25 0"/>
<feBlend mode="normal" in2="shape" result="effect1_innerShadow_1_1118"/>
</filter>
<filter id="filter10_d_1_1118" x="324.348" y="69.4727" width="188.678" height="166.343" filterUnits="userSpaceOnUse" color-interpolation-filters="sRGB">
<feFlood flood-opacity="0" result="BackgroundImageFix"/>
<feColorMatrix in="SourceAlpha" type="matrix" values="0 0 0 0 0 0 0 0 0 0 0 0 0 0 0 0 0 0 127 0" result="hardAlpha"/>
<feOffset dy="0.747769"/>
<feComposite in2="hardAlpha" operator="out"/>
<feColorMatrix type="matrix" values="0 0 0 0 0 0 0 0 0 0 0 0 0 0 0 0 0 0 0.25 0"/>
<feBlend mode="normal" in2="BackgroundImageFix" result="effect1_dropShadow_1_1118"/>
<feBlend mode="normal" in="SourceGraphic" in2="effect1_dropShadow_1_1118" result="shape"/>
</filter>
<filter id="filter11_i_1_1118" x="379.591" y="112.88" width="82.3132" height="74.1244" filterUnits="userSpaceOnUse" color-interpolation-filters="sRGB">
<feFlood flood-opacity="0" result="BackgroundImageFix"/>
<feBlend mode="normal" in="SourceGraphic" in2="BackgroundImageFix" result="shape"/>
<feColorMatrix in="SourceAlpha" type="matrix" values="0 0 0 0 0 0 0 0 0 0 0 0 0 0 0 0 0 0 127 0" result="hardAlpha"/>
<feOffset/>
<feGaussianBlur stdDeviation="0.747769"/>
<feComposite in2="hardAlpha" operator="arithmetic" k2="-1" k3="1"/>
<feColorMatrix type="matrix" values="0 0 0 0 0 0 0 0 0 0 0 0 0 0 0 0 0 0 0.25 0"/>
<feBlend mode="normal" in2="shape" result="effect1_innerShadow_1_1118"/>
</filter>
<filter id="filter12_i_1_1118" x="378.783" y="109.647" width="82.3132" height="74.1244" filterUnits="userSpaceOnUse" color-interpolation-filters="sRGB">
<feFlood flood-opacity="0" result="BackgroundImageFix"/>
<feBlend mode="normal" in="SourceGraphic" in2="BackgroundImageFix" result="shape"/>
<feColorMatrix in="SourceAlpha" type="matrix" values="0 0 0 0 0 0 0 0 0 0 0 0 0 0 0 0 0 0 127 0" result="hardAlpha"/>
<feOffset/>
<feGaussianBlur stdDeviation="0.747769"/>
<feComposite in2="hardAlpha" operator="arithmetic" k2="-1" k3="1"/>
<feColorMatrix type="matrix" values="0 0 0 0 0 0 0 0 0 0 0 0 0 0 0 0 0 0 0.25 0"/>
<feBlend mode="normal" in2="shape" result="effect1_innerShadow_1_1118"/>
</filter>
<filter id="filter13_d_1_1118" x="252.303" y="98.7503" width="90.1533" height="48.8821" filterUnits="userSpaceOnUse" color-interpolation-filters="sRGB">
<feFlood flood-opacity="0" result="BackgroundImageFix"/>
<feColorMatrix in="SourceAlpha" type="matrix" values="0 0 0 0 0 0 0 0 0 0 0 0 0 0 0 0 0 0 127 0" result="hardAlpha"/>
<feOffset dy="3.23322"/>
<feGaussianBlur stdDeviation="1.61661"/>
<feComposite in2="hardAlpha" operator="out"/>
<feColorMatrix type="matrix" values="0 0 0 0 0 0 0 0 0 0 0 0 0 0 0 0 0 0 0.05 0"/>
<feBlend mode="normal" in2="BackgroundImageFix" result="effect1_dropShadow_1_1118"/>
<feBlend mode="normal" in="SourceGraphic" in2="effect1_dropShadow_1_1118" result="shape"/>
</filter>
<filter id="filter14_d_1_1118" x="479.288" y="180.918" width="117.461" height="31.5821" filterUnits="userSpaceOnUse" color-interpolation-filters="sRGB">
<feFlood flood-opacity="0" result="BackgroundImageFix"/>
<feColorMatrix in="SourceAlpha" type="matrix" values="0 0 0 0 0 0 0 0 0 0 0 0 0 0 0 0 0 0 127 0" result="hardAlpha"/>
<feOffset dy="3.23322"/>
<feGaussianBlur stdDeviation="1.61661"/>
<feComposite in2="hardAlpha" operator="out"/>
<feColorMatrix type="matrix" values="0 0 0 0 0 0 0 0 0 0 0 0 0 0 0 0 0 0 0.05 0"/>
<feBlend mode="normal" in2="BackgroundImageFix" result="effect1_dropShadow_1_1118"/>
<feBlend mode="normal" in="SourceGraphic" in2="effect1_dropShadow_1_1118" result="shape"/>
</filter>
<filter id="filter15_d_1_1118" x="144.998" y="174.162" width="228.575" height="75.8954" filterUnits="userSpaceOnUse" color-interpolation-filters="sRGB">
<feFlood flood-opacity="0" result="BackgroundImageFix"/>
<feColorMatrix in="SourceAlpha" type="matrix" values="0 0 0 0 0 0 0 0 0 0 0 0 0 0 0 0 0 0 127 0" result="hardAlpha"/>
<feOffset dy="3.23322"/>
<feGaussianBlur stdDeviation="1.61661"/>
<feComposite in2="hardAlpha" operator="out"/>
<feColorMatrix type="matrix" values="0 0 0 0 0 0 0 0 0 0 0 0 0 0 0 0 0 0 0.05 0"/>
<feBlend mode="normal" in2="BackgroundImageFix" result="effect1_dropShadow_1_1118"/>
<feBlend mode="normal" in="SourceGraphic" in2="effect1_dropShadow_1_1118" result="shape"/>
</filter>
<filter id="filter16_d_1_1118" x="462.412" y="30.0338" width="213.051" height="71.4446" filterUnits="userSpaceOnUse" color-interpolation-filters="sRGB">
<feFlood flood-opacity="0" result="BackgroundImageFix"/>
<feColorMatrix in="SourceAlpha" type="matrix" values="0 0 0 0 0 0 0 0 0 0 0 0 0 0 0 0 0 0 127 0" result="hardAlpha"/>
<feOffset dy="3.23322"/>
<feGaussianBlur stdDeviation="1.61661"/>
<feComposite in2="hardAlpha" operator="out"/>
<feColorMatrix type="matrix" values="0 0 0 0 0 0 0 0 0 0 0 0 0 0 0 0 0 0 0.05 0"/>
<feBlend mode="normal" in2="BackgroundImageFix" result="effect1_dropShadow_1_1118"/>
<feBlend mode="normal" in="SourceGraphic" in2="effect1_dropShadow_1_1118" result="shape"/>
</filter>
<linearGradient id="paint0_linear_1_1118" x1="418.542" y1="117.845" x2="453.586" y2="214.263" gradientUnits="userSpaceOnUse">
<stop stop-color="#FAFAFF"/>
<stop offset="1" stop-color="white"/>
</linearGradient>
<linearGradient id="paint1_linear_1_1118" x1="465.273" y1="216.898" x2="404.33" y2="218.394" gradientUnits="userSpaceOnUse">
<stop offset="0.25" stop-color="#EBEBFF"/>
<stop offset="0.494293" stop-color="white"/>
<stop offset="0.8" stop-color="#EBEBFF"/>
</linearGradient>
<clipPath id="clip0_1_1118">
<path d="M0 12C0 5.37259 5.37258 0 12 0H867C873.627 0 879 5.37258 879 12V308C879 314.627 873.627 320 867 320H12C5.37256 320 0 314.627 0 308V12Z" fill="white"/>
</clipPath>
<clipPath id="clip1_1_1118">
<rect width="889.134" height="288.564" fill="white" transform="translate(-5.00146 16)"/>
</clipPath>
</defs>
</svg>
