<svg width="22" height="22" viewBox="0 0 22 22" fill="none" xmlns="http://www.w3.org/2000/svg">
<path d="M6.66016 4.2373V4.23828C7.15569 4.23496 7.63582 4.41028 8.01172 4.7334C8.34202 5.01745 8.57277 5.39837 8.67188 5.81934L8.70605 6.00293L8.70703 6.00879C8.78565 6.60487 8.93058 7.19055 9.14062 7.75391C9.27868 8.12118 9.30938 8.52056 9.22754 8.9043C9.14571 9.28794 8.95547 9.63999 8.67969 9.91895L8.67676 9.92188L8.20605 10.3916C8.99448 11.6236 10.0406 12.6693 11.2725 13.458L11.7432 12.9883L11.7461 12.9863C12.0251 12.7104 12.378 12.5203 12.7617 12.4385C13.1446 12.3569 13.5426 12.3861 13.9092 12.5234C14.332 12.6812 14.7681 12.8026 15.2109 12.8867L15.6562 12.959L15.6631 12.96C16.1614 13.0303 16.617 13.281 16.9424 13.665C17.264 14.0447 17.4359 14.5283 17.4277 15.0254V17.0508C17.4289 17.3365 17.3703 17.6191 17.2559 17.8809C17.1414 18.1427 16.9733 18.3781 16.7627 18.5713C16.5522 18.7644 16.3038 18.9114 16.0332 19.0029C15.7626 19.0945 15.4759 19.1282 15.1914 19.1025L15.1787 19.1016C12.9894 18.8637 10.8858 18.1162 9.03809 16.918V16.917C7.32026 15.8242 5.86344 14.3669 4.77148 12.6484V12.6475C3.5714 10.7928 2.8241 8.68211 2.59082 6.48535L2.58984 6.47461C2.5642 6.19087 2.59755 5.90476 2.68848 5.63477C2.77942 5.36476 2.92608 5.11667 3.11816 4.90625C3.31022 4.6959 3.54413 4.5272 3.80469 4.41211C4.06517 4.29713 4.3471 4.23757 4.63184 4.2373H6.66016Z" stroke="#B3ADC7" stroke-width="1.4" stroke-linecap="round" stroke-linejoin="round"/>
<path d="M12.1406 6.47656L12.5855 6.56554C13.7731 6.80306 14.7014 7.73135 14.9389 8.91893L15.0279 9.36382" stroke="#B3ADC7" stroke-width="1.2" stroke-linecap="round"/>
<path d="M13.0938 3.58984C15.2124 4.19518 16.9186 5.76929 17.6923 7.83246L17.9058 8.40194" stroke="#B3ADC7" stroke-width="1.2" stroke-linecap="round"/>
</svg>
