<svg width="34" height="34" viewBox="0 0 34 34" fill="none" xmlns="http://www.w3.org/2000/svg">
<rect x="0.5" y="0.5" width="33" height="33" rx="7.5" fill="#FAFAFF"/>
<rect x="0.5" y="0.5" width="33" height="33" rx="7.5" stroke="#CFCBDC"/>
<path d="M9.02244 17.3377C9.31981 21.4567 12.9296 24.8078 17.2498 24.9918C20.2979 25.1197 23.0238 23.7441 24.6593 21.5767C25.3367 20.6889 24.9732 20.097 23.8416 20.297C23.2881 20.393 22.7181 20.4329 22.1234 20.409C18.0841 20.249 14.7799 16.9778 14.7634 13.1148C14.7551 12.0751 14.9782 11.0913 15.3829 10.1956C15.829 9.20382 15.2921 8.73194 14.2595 9.15584C10.9884 10.4915 8.74984 13.6827 9.02244 17.3377Z" stroke="#625982" stroke-width="1.5" stroke-linecap="round" stroke-linejoin="round"/>
</svg>
