<svg width="172" height="30" viewBox="0 0 172 30" fill="none" xmlns="http://www.w3.org/2000/svg">
<path d="M14.8193 29.8117C23.0037 29.8117 29.6386 23.1809 29.6386 15.0015C29.6386 6.82213 23.0037 0.191406 14.8193 0.191406C6.63482 0.191406 0 6.82213 0 15.0015C0 23.1809 6.63482 29.8117 14.8193 29.8117Z" fill="#742750"/>
<path d="M12.7173 22.6889L5.44141 14.5631L12.7173 16.8107L24.0124 7.12891L12.7173 22.6889Z" fill="#39AC6E"/>
<path d="M165.258 19.0361H171.815V22.061H161.727V7.94531H171.815V10.97H165.258V13.4906H170.807V16.5155H165.258V19.0361Z" fill="#49A959"/>
<path d="M147.586 7.94531H153.135C155.005 7.94531 156.481 8.48638 157.564 9.56854C158.647 10.6507 159.188 11.9581 159.188 13.4906C159.188 15.0232 158.647 16.3305 157.564 17.4129C157.133 17.843 156.639 18.1891 156.081 18.4514L159.329 22.061H154.588L151.874 19.0361H151.117V22.061H147.586V7.94531ZM151.117 10.97V16.0113H153.135C153.834 16.0113 154.429 15.7659 154.921 15.2753C155.412 14.7846 155.657 14.1897 155.657 13.4906C155.657 12.7917 155.412 12.1968 154.921 11.7062C154.429 11.2155 153.834 10.97 153.135 10.97H151.117Z" fill="#49A959"/>
<path d="M137.617 19.0364C138.734 19.0364 139.686 18.6432 140.473 17.8566C141.26 17.0702 141.653 16.1192 141.653 15.0034C141.653 13.8875 141.26 12.9365 140.473 12.1499C139.686 11.3635 138.734 10.9703 137.617 10.9703C136.501 10.9703 135.549 11.3635 134.762 12.1499C133.975 12.9365 133.582 13.8875 133.582 15.0034C133.582 16.1192 133.975 17.0702 134.762 17.8566C135.549 18.6432 136.501 19.0364 137.617 19.0364ZM137.617 22.5653C135.526 22.5653 133.74 21.8293 132.26 20.3571C130.787 18.8784 130.051 17.0937 130.051 15.0034C130.051 12.9128 130.787 11.1317 132.26 9.65953C133.74 8.18079 135.526 7.44141 137.617 7.44141C139.709 7.44141 141.491 8.18079 142.965 9.65953C144.444 11.1317 145.184 12.9128 145.184 15.0034C145.184 17.0937 144.444 18.8784 142.965 20.3571C141.491 21.8293 139.709 22.5653 137.617 22.5653Z" fill="#49A959"/>
<path d="M125.088 17.7761L127.651 20.1959C127.604 20.2497 127.557 20.3001 127.51 20.3472C126.03 21.8259 124.244 22.5653 122.153 22.5653C120.061 22.5653 118.275 21.8293 116.795 20.3571C115.322 18.8784 114.586 17.0937 114.586 15.0034C114.586 12.9128 115.322 11.1317 116.795 9.65953C118.275 8.18079 120.061 7.44141 122.153 7.44141C124.244 7.44141 126.03 8.17738 127.51 9.64956C127.55 9.69659 127.59 9.74025 127.631 9.7805L125.018 12.16L125.008 12.1499C124.221 11.3635 123.269 10.9703 122.153 10.9703C121.036 10.9703 120.084 11.3635 119.297 12.1499C118.51 12.9365 118.117 13.8875 118.117 15.0034C118.117 16.1192 118.51 17.0702 119.297 17.8566C120.084 18.6432 121.036 19.0364 122.153 19.0364C123.269 19.0364 124.221 18.6432 125.008 17.8566L125.088 17.7761Z" fill="#49A959"/>
<path d="M112.187 22.061H108.656V7.94531H112.187V22.061Z" fill="#742750"/>
<path d="M100.654 7.44141C102.854 7.44141 104.639 8.29179 106.011 9.99235L103.489 12.0088C102.803 11.3097 101.952 10.9603 100.937 10.9603C99.9479 10.9669 99.4535 11.3065 99.4535 11.9785C99.4334 12.8524 100.247 13.37 101.895 13.5312C104.801 13.9278 106.253 15.3864 106.253 17.907C106.253 19.3254 105.732 20.458 104.69 21.305C103.654 22.1452 102.436 22.5653 101.037 22.5653C98.5556 22.5653 96.6825 21.735 95.418 20.0749L97.9402 17.5543C98.68 18.6095 99.6789 19.1373 100.937 19.1373C102.14 19.1036 102.742 18.6633 102.742 17.8164C102.742 17.2651 101.475 16.7543 98.9391 16.2838C96.8472 15.4974 95.8015 14.0725 95.8015 12.0088C95.8015 10.1133 96.8472 8.71847 98.9391 7.82444C99.4906 7.62954 100.062 7.50178 100.654 7.44141Z" fill="#742750"/>
<path d="M83.9373 14.62V22.061H80.4062V7.94531H83.4328L89.486 15.8602V7.94531H93.0173V22.061H89.9905L83.9373 14.62Z" fill="#742750"/>
<path d="M70.4416 19.0364C71.5579 19.0364 72.5097 18.6432 73.2966 17.8566C74.0835 17.0702 74.477 16.1192 74.477 15.0034C74.477 13.8875 74.0835 12.9365 73.2966 12.1499C72.5097 11.3635 71.5579 10.9703 70.4416 10.9703C69.3251 10.9703 68.3733 11.3635 67.5864 12.1499C66.7995 12.9365 66.406 13.8875 66.406 15.0034C66.406 16.1192 66.7995 17.0702 67.5864 17.8566C68.3733 18.6432 69.3251 19.0364 70.4416 19.0364ZM70.4416 22.5653C68.3497 22.5653 66.564 21.8293 65.0843 20.3571C63.6114 18.8784 62.875 17.0937 62.875 15.0034C62.875 12.9128 63.6114 11.1317 65.0843 9.65953C66.564 8.18079 68.3497 7.44141 70.4416 7.44141C72.5333 7.44141 74.3156 8.18079 75.7885 9.65953C77.2684 11.1317 78.0082 12.9128 78.0082 15.0034C78.0082 17.0937 77.2684 18.8784 75.7885 20.3571C74.3156 21.8293 72.5333 22.5653 70.4416 22.5653Z" fill="#742750"/>
<path d="M48.875 7.94531H54.4238C56.2937 7.94531 57.77 8.48638 58.8528 9.56854C59.9356 10.6507 60.4772 11.9581 60.4772 13.4906C60.4772 15.0232 59.9356 16.3305 58.8528 17.4129C57.77 18.495 56.2937 19.0361 54.4238 19.0361H52.4061V22.061H48.875V7.94531ZM52.4061 10.97V16.0113H54.4238C55.1233 16.0113 55.7186 15.7659 56.2095 15.2753C56.7005 14.7846 56.946 14.1897 56.946 13.4906C56.946 12.7917 56.7005 12.1968 56.2095 11.7062C55.7186 11.2155 55.1233 10.97 54.4238 10.97H52.4061Z" fill="#742750"/>
<path d="M40.8728 7.44141C43.0722 7.44141 44.8579 8.29179 46.23 9.99235L43.7078 12.0088C43.0217 11.3097 42.1709 10.9603 41.1553 10.9603C40.1666 10.9669 39.6722 11.3065 39.6722 11.9785C39.6521 12.8524 40.4659 13.37 42.1137 13.5312C45.0193 13.9278 46.4721 15.3864 46.4721 17.907C46.4721 19.3254 45.9508 20.458 44.9083 21.305C43.8725 22.1452 42.6552 22.5653 41.2562 22.5653C38.7743 22.5653 36.9012 21.735 35.6367 20.0749L38.1589 17.5543C38.8988 18.6095 39.8976 19.1373 41.1553 19.1373C42.3592 19.1036 42.9612 18.6633 42.9612 17.8164C42.9612 17.2651 41.6934 16.7543 39.1577 16.2838C37.066 15.4974 36.0201 14.0725 36.0201 12.0088C36.0201 10.1133 37.066 8.71847 39.1577 7.82444C39.7092 7.62954 40.2809 7.50178 40.8728 7.44141Z" fill="#742750"/>
</svg>
