<svg width="194" height="59" viewBox="0 0 194 59" fill="none" xmlns="http://www.w3.org/2000/svg">
<path d="M29.331 58.6619C45.53 58.6619 58.6619 45.53 58.6619 29.331C58.6619 13.1319 45.53 0 29.331 0C13.1319 0 0 13.1319 0 29.331C0 45.53 13.1319 58.6619 29.331 58.6619Z" fill="#742750"/>
<path d="M25.1702 44.5557L10.7695 28.4629L25.1702 32.9141L47.526 13.7396L25.1702 44.5557Z" fill="#36A368"/>
<path d="M187.712 32.9071H194V35.8091H184.326V22.267H194V25.1687H187.712V27.587H193.032V30.489H187.712V32.9071Z" fill="#49A959"/>
<path d="M170.98 22.267H176.3C178.093 22.267 179.509 22.7861 180.547 23.8242C181.585 24.8624 182.104 26.1167 182.104 27.587C182.104 29.0572 181.585 30.3115 180.547 31.3499C180.134 31.7625 179.661 32.0946 179.125 32.3462L182.24 35.8091H177.694L175.091 32.9071H174.366V35.8091H170.98V22.267ZM174.366 25.1687V30.0052H176.3C176.972 30.0052 177.542 29.7699 178.013 29.2991C178.484 28.8284 178.719 28.2577 178.719 27.587C178.719 26.9164 178.484 26.3457 178.013 25.875C177.542 25.4043 176.972 25.1687 176.3 25.1687H174.366Z" fill="#49A959"/>
<path d="M161.639 32.9126C162.709 32.9126 163.622 32.5354 164.377 31.7807C165.131 31.0263 165.509 30.1139 165.509 29.0434C165.509 27.9729 165.131 27.0605 164.377 26.3059C163.622 25.5514 162.709 25.1742 161.639 25.1742C160.568 25.1742 159.657 25.5514 158.902 26.3059C158.147 27.0605 157.77 27.9729 157.77 29.0434C157.77 30.1139 158.147 31.0263 158.902 31.7807C159.657 32.5354 160.568 32.9126 161.639 32.9126ZM161.639 36.2981C159.634 36.2981 157.922 35.592 156.503 34.1797C155.091 32.761 154.385 31.0488 154.385 29.0434C154.385 27.0378 155.091 25.3291 156.503 23.9167C157.922 22.4981 159.634 21.7887 161.639 21.7887C163.645 21.7887 165.353 22.4981 166.766 23.9167C168.184 25.3291 168.894 27.0378 168.894 29.0434C168.894 31.0488 168.184 32.761 166.766 34.1797C165.353 35.592 163.645 36.2981 161.639 36.2981Z" fill="#49A959"/>
<path d="M149.841 31.7035L152.298 34.025C152.252 34.0766 152.207 34.125 152.163 34.1701C150.744 35.5888 149.032 36.2981 147.026 36.2981C145.02 36.2981 143.309 35.592 141.89 34.1797C140.478 32.761 139.771 31.0488 139.771 29.0434C139.771 27.0378 140.478 25.3291 141.89 23.9167C143.309 22.4981 145.02 21.7887 147.026 21.7887C149.032 21.7887 150.744 22.4948 152.163 23.9072C152.201 23.9522 152.24 23.9941 152.278 24.0328L149.773 26.3156L149.764 26.3059C149.009 25.5514 148.096 25.1742 147.026 25.1742C145.955 25.1742 145.043 25.5514 144.289 26.3059C143.534 27.0605 143.157 27.9729 143.157 29.0434C143.157 30.1139 143.534 31.0263 144.289 31.7807C145.043 32.5354 145.955 32.9126 147.026 32.9126C148.096 32.9126 149.009 32.5354 149.764 31.7807L149.841 31.7035Z" fill="#49A959"/>
<path d="M137.685 35.8091H134.3V22.267H137.685V35.8091Z" fill="#742750"/>
<path d="M126.845 21.7887C128.954 21.7887 130.666 22.6045 131.982 24.236L129.564 26.1705C128.906 25.4998 128.09 25.1646 127.116 25.1646C126.168 25.171 125.695 25.4967 125.695 26.1414C125.675 26.9798 126.456 27.4764 128.035 27.631C130.821 28.0115 132.214 29.4109 132.214 31.8291C132.214 33.1898 131.714 34.2764 130.715 35.089C129.721 35.895 128.554 36.2981 127.213 36.2981C124.834 36.2981 123.038 35.5016 121.825 33.9089L124.244 31.4907C124.953 32.5031 125.91 33.0093 127.116 33.0093C128.27 32.9771 128.848 32.5547 128.848 31.7421C128.848 31.2133 127.632 30.7232 125.201 30.2718C123.195 29.5174 122.193 28.1503 122.193 26.1705C122.193 24.3521 123.195 23.0139 125.201 22.1562C125.73 21.9692 126.278 21.8466 126.845 21.7887Z" fill="#742750"/>
<path d="M111.033 28.6705V35.8091H107.647V22.267H110.549L116.353 29.8603V22.267H119.739V35.8091H116.837L111.033 28.6705Z" fill="#742750"/>
<path d="M98.306 32.9126C99.3765 32.9126 100.289 32.5354 101.044 31.7807C101.798 31.0263 102.175 30.1139 102.175 29.0434C102.175 27.9729 101.798 27.0605 101.044 26.3059C100.289 25.5514 99.3765 25.1742 98.306 25.1742C97.2355 25.1742 96.3236 25.5514 95.5689 26.3059C94.8142 27.0605 94.4372 27.9729 94.4372 29.0434C94.4372 30.1139 94.8142 31.0263 95.5689 31.7807C96.3236 32.5354 97.2355 32.9126 98.306 32.9126ZM98.306 36.2981C96.3006 36.2981 94.5888 35.592 93.1698 34.1797C91.7578 32.761 91.0518 31.0488 91.0518 29.0434C91.0518 27.0378 91.7578 25.3291 93.1698 23.9167C94.5888 22.4981 96.3006 21.7887 98.306 21.7887C100.312 21.7887 102.02 22.4981 103.433 23.9167C104.851 25.3291 105.561 27.0378 105.561 29.0434C105.561 31.0488 104.851 32.761 103.433 34.1797C102.02 35.592 100.312 36.2981 98.306 36.2981Z" fill="#742750"/>
<path d="M77.8408 22.267H83.1608C84.9537 22.267 86.3691 22.7861 87.4073 23.8242C88.4454 24.8624 88.9648 26.1167 88.9648 27.587C88.9648 29.0572 88.4454 30.3115 87.4073 31.3499C86.3691 32.388 84.9537 32.9071 83.1608 32.9071H81.2264V35.8091H77.8408V22.267ZM81.2264 25.1687V30.0052H83.1608C83.8316 30.0052 84.4023 29.7699 84.873 29.2991C85.3437 28.8284 85.5791 28.2577 85.5791 27.587C85.5791 26.9164 85.3437 26.3457 84.873 25.875C84.4023 25.4043 83.8316 25.1687 83.1608 25.1687H81.2264Z" fill="#742750"/>
<path d="M70.3864 21.7887C72.4952 21.7887 74.2073 22.6045 75.5228 24.236L73.1046 26.1705C72.4468 25.4998 71.631 25.1646 70.6573 25.1646C69.7094 25.171 69.2354 25.4967 69.2354 26.1414C69.216 26.9798 69.9964 27.4764 71.5762 27.631C74.362 28.0115 75.7549 29.4109 75.7549 31.8291C75.7549 33.1898 75.2552 34.2764 74.2556 35.089C73.2625 35.895 72.0953 36.2981 70.754 36.2981C68.3745 36.2981 66.5785 35.5016 65.3662 33.9089L67.7845 31.4907C68.4938 32.5031 69.4514 33.0093 70.6573 33.0093C71.8116 32.9771 72.3887 32.5547 72.3887 31.7421C72.3887 31.2133 71.1732 30.7232 68.7421 30.2718C66.7365 29.5174 65.7338 28.1503 65.7338 26.1705C65.7338 24.3521 66.7365 23.0139 68.7421 22.1562C69.2709 21.9692 69.819 21.8466 70.3864 21.7887Z" fill="#742750"/>
</svg>
