<svg width="172" height="30" viewBox="0 0 172 30" fill="none" xmlns="http://www.w3.org/2000/svg">
<path d="M14.8193 29.6203C23.0037 29.6203 29.6386 22.9895 29.6386 14.8101C29.6386 6.63072 23.0037 0 14.8193 0C6.63482 0 0 6.63072 0 14.8101C0 22.9895 6.63482 29.6203 14.8193 29.6203Z" fill="#742750"/>
<path d="M12.718 22.4964L5.44214 14.3706L12.718 16.6182L24.0131 6.9364L12.718 22.4964Z" fill="#39AC6E"/>
<path d="M165.26 18.8428H171.818V21.8676H161.729V7.75195H171.818V10.7766H165.26V13.2973H170.809V16.3221H165.26V18.8428Z" fill="#49A959"/>
<path d="M147.585 7.75195H153.134C155.004 7.75195 156.48 8.29302 157.563 9.37518C158.646 10.4573 159.188 11.7647 159.188 13.2973C159.188 14.8298 158.646 16.1372 157.563 17.2195C157.133 17.6496 156.638 17.9958 156.08 18.258L159.329 21.8676H154.587L151.873 18.8428H151.116V21.8676H147.585V7.75195ZM151.116 10.7766V15.8179H153.134C153.834 15.8179 154.429 15.5726 154.92 15.0819C155.411 14.5913 155.657 13.9964 155.657 13.2973C155.657 12.5983 155.411 12.0035 154.92 11.5128C154.429 11.0221 153.834 10.7766 153.134 10.7766H151.116Z" fill="#49A959"/>
<path d="M137.619 18.8432C138.736 18.8432 139.688 18.45 140.475 17.6634C141.261 16.877 141.655 15.926 141.655 14.8101C141.655 13.6943 141.261 12.7433 140.475 11.9566C139.688 11.1702 138.736 10.777 137.619 10.777C136.503 10.777 135.551 11.1702 134.764 11.9566C133.977 12.7433 133.584 13.6943 133.584 14.8101C133.584 15.926 133.977 16.877 134.764 17.6634C135.551 18.45 136.503 18.8432 137.619 18.8432ZM137.619 22.372C135.528 22.372 133.742 21.6361 132.262 20.1639C130.789 18.6851 130.053 16.9005 130.053 14.8101C130.053 12.7195 130.789 10.9385 132.262 9.4663C133.742 7.98755 135.528 7.24817 137.619 7.24817C139.711 7.24817 141.493 7.98755 142.966 9.4663C144.446 10.9385 145.186 12.7195 145.186 14.8101C145.186 16.9005 144.446 18.6851 142.966 20.1639C141.493 21.6361 139.711 22.372 137.619 22.372Z" fill="#49A959"/>
<path d="M125.09 17.5829L127.652 20.0027C127.605 20.0565 127.558 20.1069 127.511 20.1539C126.031 21.6327 124.245 22.372 122.154 22.372C120.062 22.372 118.276 21.6361 116.796 20.1639C115.324 18.6851 114.587 16.9005 114.587 14.8101C114.587 12.7195 115.324 10.9385 116.796 9.4663C118.276 7.98755 120.062 7.24817 122.154 7.24817C124.245 7.24817 126.031 7.98415 127.511 9.45632C127.551 9.50336 127.592 9.54701 127.632 9.58726L125.019 11.9668L125.009 11.9566C124.222 11.1702 123.27 10.777 122.154 10.777C121.037 10.777 120.085 11.1702 119.299 11.9566C118.512 12.7433 118.118 13.6943 118.118 14.8101C118.118 15.926 118.512 16.877 119.299 17.6634C120.085 18.45 121.037 18.8432 122.154 18.8432C123.27 18.8432 124.222 18.45 125.009 17.6634L125.09 17.5829Z" fill="#49A959"/>
<path d="M112.187 21.8676H108.656V7.75195H112.187V21.8676Z" fill="white"/>
<path d="M100.656 7.24817C102.856 7.24817 104.641 8.09856 106.013 9.79911L103.491 11.8155C102.805 11.1164 101.954 10.7671 100.939 10.7671C99.9498 10.7736 99.4555 11.1132 99.4555 11.7852C99.4354 12.6591 100.249 13.1767 101.897 13.3379C104.803 13.7345 106.255 15.1931 106.255 17.7138C106.255 19.1322 105.734 20.2647 104.692 21.1117C103.656 21.9519 102.438 22.372 101.039 22.372C98.5575 22.372 96.6844 21.5418 95.4199 19.8817L97.9421 17.361C98.682 18.4163 99.6808 18.944 100.939 18.944C102.142 18.9103 102.744 18.4701 102.744 17.6231C102.744 17.0719 101.477 16.5611 98.941 16.0905C96.8491 15.3041 95.8034 13.8792 95.8034 11.8155C95.8034 9.92008 96.8491 8.52523 98.941 7.6312C99.4926 7.4363 100.064 7.30855 100.656 7.24817Z" fill="white"/>
<path d="M83.94 14.4266V21.8676H80.4089V7.75195H83.4355L89.4887 15.6668V7.75195H93.0199V21.8676H89.9932L83.94 14.4266Z" fill="white"/>
<path d="M70.4428 18.8432C71.5591 18.8432 72.511 18.45 73.2978 17.6634C74.0847 16.877 74.4782 15.926 74.4782 14.8101C74.4782 13.6943 74.0847 12.7433 73.2978 11.9566C72.511 11.1702 71.5591 10.777 70.4428 10.777C69.3263 10.777 68.3745 11.1702 67.5876 11.9566C66.8007 12.7433 66.4073 13.6943 66.4073 14.8101C66.4073 15.926 66.8007 16.877 67.5876 17.6634C68.3745 18.45 69.3263 18.8432 70.4428 18.8432ZM70.4428 22.372C68.351 22.372 66.5652 21.6361 65.0855 20.1639C63.6127 18.6851 62.8762 16.9005 62.8762 14.8101C62.8762 12.7195 63.6127 10.9385 65.0855 9.4663C66.5652 7.98755 68.351 7.24817 70.4428 7.24817C72.5345 7.24817 74.3169 7.98755 75.7897 9.4663C77.2696 10.9385 78.0094 12.7195 78.0094 14.8101C78.0094 16.9005 77.2696 18.6851 75.7897 20.1639C74.3169 21.6361 72.5345 22.372 70.4428 22.372Z" fill="white"/>
<path d="M48.8745 7.75195H54.4233C56.2932 7.75195 57.7695 8.29302 58.8523 9.37518C59.9351 10.4573 60.4767 11.7647 60.4767 13.2973C60.4767 14.8298 59.9351 16.1372 58.8523 17.2195C57.7695 18.3017 56.2932 18.8428 54.4233 18.8428H52.4056V21.8676H48.8745V7.75195ZM52.4056 10.7766V15.8179H54.4233C55.1228 15.8179 55.7181 15.5726 56.209 15.0819C56.7 14.5913 56.9455 13.9964 56.9455 13.2973C56.9455 12.5983 56.7 12.0035 56.209 11.5128C55.7181 11.0221 55.1228 10.7766 54.4233 10.7766H52.4056Z" fill="white"/>
<path d="M40.8748 7.24817C43.0741 7.24817 44.8598 8.09856 46.2319 9.79911L43.7097 11.8155C43.0237 11.1164 42.1728 10.7671 41.1572 10.7671C40.1685 10.7736 39.6742 11.1132 39.6742 11.7852C39.654 12.6591 40.4678 13.1767 42.1157 13.3379C45.0213 13.7345 46.4741 15.1931 46.4741 17.7138C46.4741 19.1322 45.9528 20.2647 44.9103 21.1117C43.8745 21.9519 42.6571 22.372 41.2581 22.372C38.7763 22.372 36.9031 21.5418 35.6387 19.8817L38.1609 17.361C38.9007 18.4163 39.8995 18.944 41.1572 18.944C42.3612 18.9103 42.9631 18.4701 42.9631 17.6231C42.9631 17.0719 41.6953 16.5611 39.1597 16.0905C37.0679 15.3041 36.022 13.8792 36.022 11.8155C36.022 9.92008 37.0679 8.52523 39.1597 7.6312C39.7112 7.4363 40.2829 7.30855 40.8748 7.24817Z" fill="white"/>
</svg>
